G04 #@! TF.FileFunction,Other,Fab,Top*
%FSLAX46Y46*%
G04 Gerber Fmt 4.6, Leading zero omitted, Abs format (unit mm)*
G04 Created by KiCad (PCBNEW 4.0.4-stable) date 01/02/17 19:22:38*
%MOMM*%
%LPD*%
G01*
G04 APERTURE LIST*
%ADD10C,0.100000*%
%ADD11C,0.150000*%
%ADD12C,0.090000*%
G04 APERTURE END LIST*
D10*
D11*
X181760000Y-125205000D02*
X181760000Y-126455000D01*
X179760000Y-125205000D02*
X181760000Y-125205000D01*
X179760000Y-126455000D02*
X179760000Y-125205000D01*
X181760000Y-126455000D02*
X179760000Y-126455000D01*
D10*
X176625000Y-126220000D02*
X177875000Y-126220000D01*
X176625000Y-128220000D02*
X176625000Y-126220000D01*
X177875000Y-128220000D02*
X176625000Y-128220000D01*
X177875000Y-126220000D02*
X177875000Y-128220000D01*
D11*
X184060000Y-127530000D02*
X184660000Y-127530000D01*
X184360000Y-127430000D02*
X184060000Y-127130000D01*
X184660000Y-127130000D02*
X184360000Y-127430000D01*
X184060000Y-127130000D02*
X184660000Y-127130000D01*
X183760000Y-126130000D02*
X183760000Y-128130000D01*
X184960000Y-126130000D02*
X183760000Y-126130000D01*
X184960000Y-128130000D02*
X184960000Y-126130000D01*
X183760000Y-128130000D02*
X184960000Y-128130000D01*
X174750000Y-125165000D02*
X174750000Y-126415000D01*
X172750000Y-125165000D02*
X174750000Y-125165000D01*
X172750000Y-126415000D02*
X172750000Y-125165000D01*
X174750000Y-126415000D02*
X172750000Y-126415000D01*
D10*
X181860000Y-127405000D02*
X181860000Y-128655000D01*
X179860000Y-127405000D02*
X181860000Y-127405000D01*
X179860000Y-128655000D02*
X179860000Y-127405000D01*
X181860000Y-128655000D02*
X179860000Y-128655000D01*
D11*
X172160000Y-127350000D02*
X175160000Y-127350000D01*
X175160000Y-127350000D02*
X175160000Y-129850000D01*
X175160000Y-129850000D02*
X172160000Y-129850000D01*
X172160000Y-129850000D02*
X172160000Y-127350000D01*
D12*
X179898573Y-124286190D02*
X179946192Y-124286190D01*
X179993811Y-124310000D01*
X180017620Y-124333810D01*
X180041430Y-124381429D01*
X180065239Y-124476667D01*
X180065239Y-124595714D01*
X180041430Y-124690952D01*
X180017620Y-124738571D01*
X179993811Y-124762381D01*
X179946192Y-124786190D01*
X179898573Y-124786190D01*
X179850954Y-124762381D01*
X179827144Y-124738571D01*
X179803335Y-124690952D01*
X179779525Y-124595714D01*
X179779525Y-124476667D01*
X179803335Y-124381429D01*
X179827144Y-124333810D01*
X179850954Y-124310000D01*
X179898573Y-124286190D01*
X180279525Y-124738571D02*
X180303334Y-124762381D01*
X180279525Y-124786190D01*
X180255715Y-124762381D01*
X180279525Y-124738571D01*
X180279525Y-124786190D01*
X180779524Y-124786190D02*
X180493810Y-124786190D01*
X180636667Y-124786190D02*
X180636667Y-124286190D01*
X180589048Y-124357619D01*
X180541429Y-124405238D01*
X180493810Y-124429048D01*
X181208095Y-124452857D02*
X181208095Y-124786190D01*
X180993810Y-124452857D02*
X180993810Y-124714762D01*
X181017619Y-124762381D01*
X181065238Y-124786190D01*
X181136667Y-124786190D01*
X181184286Y-124762381D01*
X181208095Y-124738571D01*
X181612857Y-124524286D02*
X181446191Y-124524286D01*
X181446191Y-124786190D02*
X181446191Y-124286190D01*
X181684286Y-124286190D01*
X177496190Y-124647143D02*
X177496190Y-124932857D01*
X177496190Y-124790000D02*
X176996190Y-124790000D01*
X177067619Y-124837619D01*
X177115238Y-124885238D01*
X177139048Y-124932857D01*
X177496190Y-124432857D02*
X176996190Y-124432857D01*
X177496190Y-124147143D02*
X177210476Y-124361429D01*
X176996190Y-124147143D02*
X177281905Y-124432857D01*
X187106190Y-128294762D02*
X186606190Y-128294762D01*
X186606190Y-128104286D01*
X186630000Y-128056667D01*
X186653810Y-128032858D01*
X186701429Y-128009048D01*
X186772857Y-128009048D01*
X186820476Y-128032858D01*
X186844286Y-128056667D01*
X186868095Y-128104286D01*
X186868095Y-128294762D01*
X186606190Y-127699524D02*
X186606190Y-127604286D01*
X186630000Y-127556667D01*
X186677619Y-127509048D01*
X186772857Y-127485239D01*
X186939524Y-127485239D01*
X187034762Y-127509048D01*
X187082381Y-127556667D01*
X187106190Y-127604286D01*
X187106190Y-127699524D01*
X187082381Y-127747143D01*
X187034762Y-127794762D01*
X186939524Y-127818572D01*
X186772857Y-127818572D01*
X186677619Y-127794762D01*
X186630000Y-127747143D01*
X186606190Y-127699524D01*
X186606190Y-127318571D02*
X187106190Y-127199524D01*
X186749048Y-127104286D01*
X187106190Y-127009048D01*
X186606190Y-126890000D01*
X186844286Y-126699523D02*
X186844286Y-126532857D01*
X187106190Y-126461428D02*
X187106190Y-126699523D01*
X186606190Y-126699523D01*
X186606190Y-126461428D01*
X187106190Y-125961428D02*
X186868095Y-126128095D01*
X187106190Y-126247142D02*
X186606190Y-126247142D01*
X186606190Y-126056666D01*
X186630000Y-126009047D01*
X186653810Y-125985238D01*
X186701429Y-125961428D01*
X186772857Y-125961428D01*
X186820476Y-125985238D01*
X186844286Y-126009047D01*
X186868095Y-126056666D01*
X186868095Y-126247142D01*
X173084286Y-124776190D02*
X172798572Y-124776190D01*
X172941429Y-124776190D02*
X172941429Y-124276190D01*
X172893810Y-124347619D01*
X172846191Y-124395238D01*
X172798572Y-124419048D01*
X173536667Y-124276190D02*
X173298572Y-124276190D01*
X173274762Y-124514286D01*
X173298572Y-124490476D01*
X173346191Y-124466667D01*
X173465238Y-124466667D01*
X173512857Y-124490476D01*
X173536667Y-124514286D01*
X173560476Y-124561905D01*
X173560476Y-124680952D01*
X173536667Y-124728571D01*
X173512857Y-124752381D01*
X173465238Y-124776190D01*
X173346191Y-124776190D01*
X173298572Y-124752381D01*
X173274762Y-124728571D01*
X173774762Y-124442857D02*
X173774762Y-124776190D01*
X173774762Y-124490476D02*
X173798571Y-124466667D01*
X173846190Y-124442857D01*
X173917619Y-124442857D01*
X173965238Y-124466667D01*
X173989047Y-124514286D01*
X173989047Y-124776190D01*
X174393809Y-124514286D02*
X174227143Y-124514286D01*
X174227143Y-124776190D02*
X174227143Y-124276190D01*
X174465238Y-124276190D01*
X182252857Y-129746190D02*
X181967143Y-129746190D01*
X182110000Y-129746190D02*
X182110000Y-129246190D01*
X182062381Y-129317619D01*
X182014762Y-129365238D01*
X181967143Y-129389048D01*
X182467143Y-129746190D02*
X182467143Y-129246190D01*
X182752857Y-129746190D02*
X182538571Y-129460476D01*
X182752857Y-129246190D02*
X182467143Y-129531905D01*
X176426190Y-129606190D02*
X176188095Y-129772857D01*
X176426190Y-129891904D02*
X175926190Y-129891904D01*
X175926190Y-129701428D01*
X175950000Y-129653809D01*
X175973810Y-129630000D01*
X176021429Y-129606190D01*
X176092857Y-129606190D01*
X176140476Y-129630000D01*
X176164286Y-129653809D01*
X176188095Y-129701428D01*
X176188095Y-129891904D01*
X176164286Y-129391904D02*
X176164286Y-129225238D01*
X176426190Y-129153809D02*
X176426190Y-129391904D01*
X175926190Y-129391904D01*
X175926190Y-129153809D01*
X176402381Y-128963333D02*
X176426190Y-128891904D01*
X176426190Y-128772857D01*
X176402381Y-128725238D01*
X176378571Y-128701428D01*
X176330952Y-128677619D01*
X176283333Y-128677619D01*
X176235714Y-128701428D01*
X176211905Y-128725238D01*
X176188095Y-128772857D01*
X176164286Y-128868095D01*
X176140476Y-128915714D01*
X176116667Y-128939523D01*
X176069048Y-128963333D01*
X176021429Y-128963333D01*
X175973810Y-128939523D01*
X175950000Y-128915714D01*
X175926190Y-128868095D01*
X175926190Y-128749047D01*
X175950000Y-128677619D01*
X176164286Y-128463333D02*
X176164286Y-128296667D01*
X176426190Y-128225238D02*
X176426190Y-128463333D01*
X175926190Y-128463333D01*
X175926190Y-128225238D01*
X175926190Y-128082381D02*
X175926190Y-127796667D01*
X176426190Y-127939524D02*
X175926190Y-127939524D01*
D11*
X179906190Y-93518571D02*
X180239524Y-93518571D01*
X180382381Y-94042381D02*
X179906190Y-94042381D01*
X179906190Y-93042381D01*
X180382381Y-93042381D01*
X180810952Y-94042381D02*
X180810952Y-93042381D01*
X181049047Y-93042381D01*
X181191905Y-93090000D01*
X181287143Y-93185238D01*
X181334762Y-93280476D01*
X181382381Y-93470952D01*
X181382381Y-93613810D01*
X181334762Y-93804286D01*
X181287143Y-93899524D01*
X181191905Y-93994762D01*
X181049047Y-94042381D01*
X180810952Y-94042381D01*
X182334762Y-93090000D02*
X182239524Y-93042381D01*
X182096667Y-93042381D01*
X181953809Y-93090000D01*
X181858571Y-93185238D01*
X181810952Y-93280476D01*
X181763333Y-93470952D01*
X181763333Y-93613810D01*
X181810952Y-93804286D01*
X181858571Y-93899524D01*
X181953809Y-93994762D01*
X182096667Y-94042381D01*
X182191905Y-94042381D01*
X182334762Y-93994762D01*
X182382381Y-93947143D01*
X182382381Y-93613810D01*
X182191905Y-93613810D01*
X182810952Y-93518571D02*
X183144286Y-93518571D01*
X183287143Y-94042381D02*
X182810952Y-94042381D01*
X182810952Y-93042381D01*
X183287143Y-93042381D01*
X183477619Y-94137619D02*
X184239524Y-94137619D01*
X184430000Y-93994762D02*
X184572857Y-94042381D01*
X184810953Y-94042381D01*
X184906191Y-93994762D01*
X184953810Y-93947143D01*
X185001429Y-93851905D01*
X185001429Y-93756667D01*
X184953810Y-93661429D01*
X184906191Y-93613810D01*
X184810953Y-93566190D01*
X184620476Y-93518571D01*
X184525238Y-93470952D01*
X184477619Y-93423333D01*
X184430000Y-93328095D01*
X184430000Y-93232857D01*
X184477619Y-93137619D01*
X184525238Y-93090000D01*
X184620476Y-93042381D01*
X184858572Y-93042381D01*
X185001429Y-93090000D01*
X185430000Y-94042381D02*
X185430000Y-93042381D01*
X185763334Y-93756667D01*
X186096667Y-93042381D01*
X186096667Y-94042381D01*
X186525238Y-93756667D02*
X187001429Y-93756667D01*
X186430000Y-94042381D02*
X186763333Y-93042381D01*
X187096667Y-94042381D01*
X184666667Y-103372381D02*
X184904762Y-104372381D01*
X185095239Y-103658095D01*
X185285715Y-104372381D01*
X185523810Y-103372381D01*
X185904762Y-104372381D02*
X185904762Y-103372381D01*
X186952381Y-104372381D02*
X186619047Y-103896190D01*
X186380952Y-104372381D02*
X186380952Y-103372381D01*
X186761905Y-103372381D01*
X186857143Y-103420000D01*
X186904762Y-103467619D01*
X186952381Y-103562857D01*
X186952381Y-103705714D01*
X186904762Y-103800952D01*
X186857143Y-103848571D01*
X186761905Y-103896190D01*
X186380952Y-103896190D01*
X187380952Y-103848571D02*
X187714286Y-103848571D01*
X187857143Y-104372381D02*
X187380952Y-104372381D01*
X187380952Y-103372381D01*
X187857143Y-103372381D01*
X188047619Y-104467619D02*
X188809524Y-104467619D01*
X189000000Y-104086667D02*
X189476191Y-104086667D01*
X188904762Y-104372381D02*
X189238095Y-103372381D01*
X189571429Y-104372381D01*
X189904762Y-104372381D02*
X189904762Y-103372381D01*
X190476191Y-104372381D01*
X190476191Y-103372381D01*
X190809524Y-103372381D02*
X191380953Y-103372381D01*
X191095238Y-104372381D02*
X191095238Y-103372381D01*
X127133809Y-91368571D02*
X126800475Y-91368571D01*
X126800475Y-91892381D02*
X126800475Y-90892381D01*
X127276666Y-90892381D01*
X128086190Y-91892381D02*
X128086190Y-91368571D01*
X128038571Y-91273333D01*
X127943333Y-91225714D01*
X127752856Y-91225714D01*
X127657618Y-91273333D01*
X128086190Y-91844762D02*
X127990952Y-91892381D01*
X127752856Y-91892381D01*
X127657618Y-91844762D01*
X127609999Y-91749524D01*
X127609999Y-91654286D01*
X127657618Y-91559048D01*
X127752856Y-91511429D01*
X127990952Y-91511429D01*
X128086190Y-91463810D01*
X128562380Y-91892381D02*
X128562380Y-90892381D01*
X128562380Y-91273333D02*
X128657618Y-91225714D01*
X128848095Y-91225714D01*
X128943333Y-91273333D01*
X128990952Y-91320952D01*
X129038571Y-91416190D01*
X129038571Y-91701905D01*
X128990952Y-91797143D01*
X128943333Y-91844762D01*
X128848095Y-91892381D01*
X128657618Y-91892381D01*
X128562380Y-91844762D01*
X130229047Y-91892381D02*
X130229047Y-90892381D01*
X130467142Y-90892381D01*
X130610000Y-90940000D01*
X130705238Y-91035238D01*
X130752857Y-91130476D01*
X130800476Y-91320952D01*
X130800476Y-91463810D01*
X130752857Y-91654286D01*
X130705238Y-91749524D01*
X130610000Y-91844762D01*
X130467142Y-91892381D01*
X130229047Y-91892381D01*
X131610000Y-91844762D02*
X131514762Y-91892381D01*
X131324285Y-91892381D01*
X131229047Y-91844762D01*
X131181428Y-91749524D01*
X131181428Y-91368571D01*
X131229047Y-91273333D01*
X131324285Y-91225714D01*
X131514762Y-91225714D01*
X131610000Y-91273333D01*
X131657619Y-91368571D01*
X131657619Y-91463810D01*
X131181428Y-91559048D01*
X131943333Y-91225714D02*
X132324285Y-91225714D01*
X132086190Y-90892381D02*
X132086190Y-91749524D01*
X132133809Y-91844762D01*
X132229047Y-91892381D01*
X132324285Y-91892381D01*
X133086191Y-91892381D02*
X133086191Y-91368571D01*
X133038572Y-91273333D01*
X132943334Y-91225714D01*
X132752857Y-91225714D01*
X132657619Y-91273333D01*
X133086191Y-91844762D02*
X132990953Y-91892381D01*
X132752857Y-91892381D01*
X132657619Y-91844762D01*
X132610000Y-91749524D01*
X132610000Y-91654286D01*
X132657619Y-91559048D01*
X132752857Y-91511429D01*
X132990953Y-91511429D01*
X133086191Y-91463810D01*
X133562381Y-91892381D02*
X133562381Y-91225714D01*
X133562381Y-90892381D02*
X133514762Y-90940000D01*
X133562381Y-90987619D01*
X133610000Y-90940000D01*
X133562381Y-90892381D01*
X133562381Y-90987619D01*
X134181428Y-91892381D02*
X134086190Y-91844762D01*
X134038571Y-91749524D01*
X134038571Y-90892381D01*
X134514762Y-91844762D02*
X134610000Y-91892381D01*
X134800476Y-91892381D01*
X134895715Y-91844762D01*
X134943334Y-91749524D01*
X134943334Y-91701905D01*
X134895715Y-91606667D01*
X134800476Y-91559048D01*
X134657619Y-91559048D01*
X134562381Y-91511429D01*
X134514762Y-91416190D01*
X134514762Y-91368571D01*
X134562381Y-91273333D01*
X134657619Y-91225714D01*
X134800476Y-91225714D01*
X134895715Y-91273333D01*
X135990953Y-91225714D02*
X136371905Y-91225714D01*
X136133810Y-90892381D02*
X136133810Y-91749524D01*
X136181429Y-91844762D01*
X136276667Y-91892381D01*
X136371905Y-91892381D01*
X137133811Y-91892381D02*
X137133811Y-91368571D01*
X137086192Y-91273333D01*
X136990954Y-91225714D01*
X136800477Y-91225714D01*
X136705239Y-91273333D01*
X137133811Y-91844762D02*
X137038573Y-91892381D01*
X136800477Y-91892381D01*
X136705239Y-91844762D01*
X136657620Y-91749524D01*
X136657620Y-91654286D01*
X136705239Y-91559048D01*
X136800477Y-91511429D01*
X137038573Y-91511429D01*
X137133811Y-91463810D01*
X137610001Y-91892381D02*
X137610001Y-90892381D01*
X137610001Y-91273333D02*
X137705239Y-91225714D01*
X137895716Y-91225714D01*
X137990954Y-91273333D01*
X138038573Y-91320952D01*
X138086192Y-91416190D01*
X138086192Y-91701905D01*
X138038573Y-91797143D01*
X137990954Y-91844762D01*
X137895716Y-91892381D01*
X137705239Y-91892381D01*
X137610001Y-91844762D01*
X138657620Y-91892381D02*
X138562382Y-91844762D01*
X138514763Y-91749524D01*
X138514763Y-90892381D01*
X139419526Y-91844762D02*
X139324288Y-91892381D01*
X139133811Y-91892381D01*
X139038573Y-91844762D01*
X138990954Y-91749524D01*
X138990954Y-91368571D01*
X139038573Y-91273333D01*
X139133811Y-91225714D01*
X139324288Y-91225714D01*
X139419526Y-91273333D01*
X139467145Y-91368571D01*
X139467145Y-91463810D01*
X138990954Y-91559048D01*
M02*
