G04 #@! TF.FileFunction,Copper,L1,Top,Signal*
%FSLAX46Y46*%
G04 Gerber Fmt 4.6, Leading zero omitted, Abs format (unit mm)*
G04 Created by KiCad (PCBNEW 4.0.4-stable) date 01/02/17 19:22:38*
%MOMM*%
%LPD*%
G01*
G04 APERTURE LIST*
%ADD10C,0.100000*%
%ADD11C,0.500000*%
%ADD12R,1.500000X1.250000*%
%ADD13R,1.300000X1.500000*%
%ADD14C,1.400000*%
%ADD15R,1.198880X1.198880*%
%ADD16R,1.500000X1.300000*%
%ADD17R,0.900000X1.700000*%
%ADD18R,1.350000X4.700000*%
%ADD19R,1.270000X4.200000*%
%ADD20C,2.500000*%
%ADD21C,0.600000*%
%ADD22C,0.203200*%
%ADD23C,0.381000*%
%ADD24C,0.200000*%
%ADD25C,0.254000*%
%ADD26C,0.250000*%
G04 APERTURE END LIST*
D10*
D11*
X177370000Y-105260000D03*
X177350000Y-107110000D03*
X179300000Y-107120000D03*
X186030000Y-105230000D03*
X187890000Y-110210000D03*
X180200000Y-110210000D03*
X183530000Y-110210000D03*
X183530000Y-112900000D03*
X183970000Y-123570000D03*
X183970000Y-120400000D03*
X180290000Y-120420000D03*
X181330000Y-107110000D03*
X180440000Y-105230000D03*
X189550000Y-124990000D03*
X194550000Y-124990000D03*
X194550000Y-129990000D03*
X189550000Y-129990000D03*
X184550000Y-129990000D03*
X184330000Y-106000000D03*
X189330000Y-106000000D03*
X188330000Y-106000000D03*
X187330000Y-106000000D03*
X186330000Y-106000000D03*
X185330000Y-106000000D03*
X189030000Y-108130000D03*
X188030000Y-108130000D03*
X187030000Y-108130000D03*
X186030000Y-108130000D03*
X185030000Y-108130000D03*
X184030000Y-108130000D03*
X179550000Y-129990000D03*
X175280000Y-105260000D03*
D12*
X182010000Y-125830000D03*
X179510000Y-125830000D03*
D13*
X177250000Y-125870000D03*
X177250000Y-128570000D03*
D14*
X194180000Y-105230000D03*
X194180000Y-107230000D03*
X194180000Y-109230000D03*
X194180000Y-111230000D03*
X194180000Y-113230000D03*
X194180000Y-115230000D03*
X194180000Y-117230000D03*
X194180000Y-119230000D03*
X194180000Y-121230000D03*
X194180000Y-123230000D03*
X172180000Y-123230000D03*
X172180000Y-121230000D03*
X172180000Y-119230000D03*
X172180000Y-117230000D03*
X172180000Y-115230000D03*
X172180000Y-113230000D03*
X172180000Y-111230000D03*
X172180000Y-109230000D03*
X172180000Y-107230000D03*
X172180000Y-105230000D03*
D15*
X184360000Y-126080980D03*
X184360000Y-128179020D03*
D12*
X175000000Y-125790000D03*
X172500000Y-125790000D03*
D16*
X182210000Y-128030000D03*
X179510000Y-128030000D03*
D17*
X171960000Y-128600000D03*
X175360000Y-128600000D03*
D18*
X186050000Y-100350000D03*
D19*
X183265000Y-100100000D03*
D18*
X180480000Y-100350000D03*
D20*
X183200000Y-103700000D03*
D11*
X174230000Y-123330000D03*
D21*
X179000000Y-118000000D03*
X188890403Y-114050403D03*
X185540000Y-116200000D03*
X186500000Y-118160000D03*
X187370000Y-120010000D03*
D22*
X175360000Y-128600000D02*
X177220000Y-128600000D01*
X177220000Y-128600000D02*
X177250000Y-128570000D01*
X175360000Y-128600000D02*
X175360000Y-126150000D01*
X175360000Y-126150000D02*
X175000000Y-125790000D01*
X172180000Y-113230000D02*
X176140000Y-113230000D01*
X175000000Y-125000000D02*
X175000000Y-125790000D01*
X176140000Y-113230000D02*
X178030000Y-115120000D01*
X178030000Y-115120000D02*
X178030000Y-121970000D01*
X178030000Y-121970000D02*
X175000000Y-125000000D01*
X177130000Y-129230000D02*
X177180000Y-129180000D01*
D23*
X180480000Y-100350000D02*
X180480000Y-104660000D01*
X186050000Y-103081000D02*
X186050000Y-104680000D01*
X186050000Y-100350000D02*
X186050000Y-103081000D01*
X186050000Y-103081000D02*
X186040000Y-103091000D01*
D24*
X186050000Y-100350000D02*
X186050000Y-102025000D01*
D23*
X182010000Y-125830000D02*
X184109020Y-125830000D01*
X184109020Y-125830000D02*
X184360000Y-126080980D01*
X182010000Y-125830000D02*
X182010000Y-124700000D01*
X178030000Y-124220000D02*
X177250000Y-125000000D01*
X182010000Y-124700000D02*
X181530000Y-124220000D01*
X181530000Y-124220000D02*
X178030000Y-124220000D01*
X177250000Y-125000000D02*
X177250000Y-125870000D01*
X179000000Y-122250000D02*
X177250000Y-124000000D01*
X177250000Y-124000000D02*
X177250000Y-125870000D01*
X179000000Y-118000000D02*
X179000000Y-122250000D01*
X172180000Y-105230000D02*
X179000000Y-112050000D01*
X179000000Y-112050000D02*
X179000000Y-118000000D01*
D25*
X181885000Y-125830000D02*
X182010000Y-125830000D01*
X177180000Y-126480000D02*
X177180000Y-126380000D01*
X177280000Y-126380000D02*
X177180000Y-126480000D01*
D22*
X182210000Y-128030000D02*
X184210980Y-128030000D01*
X184210980Y-128030000D02*
X184360000Y-128179020D01*
X182359020Y-128179020D02*
X182210000Y-128030000D01*
D23*
X183200000Y-103700000D02*
X183200000Y-100165000D01*
X183200000Y-100165000D02*
X183265000Y-100100000D01*
D22*
X190070000Y-115230000D02*
X189190402Y-114350402D01*
X194180000Y-115230000D02*
X190070000Y-115230000D01*
X189190402Y-114350402D02*
X188890403Y-114050403D01*
D26*
X194020000Y-115300000D02*
X194220000Y-115100000D01*
D22*
X194180000Y-105230000D02*
X193030000Y-105230000D01*
X193030000Y-105230000D02*
X192670000Y-105590000D01*
X192670000Y-107230000D02*
X185540000Y-114360000D01*
X192670000Y-105590000D02*
X192670000Y-107230000D01*
X185540000Y-114360000D02*
X185540000Y-116200000D01*
D26*
X194220000Y-105100000D02*
X194220000Y-105370000D01*
D22*
X194180000Y-107230000D02*
X193510000Y-107230000D01*
X193510000Y-107230000D02*
X186500000Y-114240000D01*
X186500000Y-114240000D02*
X186500000Y-117735736D01*
X186500000Y-117735736D02*
X186500000Y-118160000D01*
X194180000Y-109230000D02*
X192230000Y-109230000D01*
X192230000Y-109230000D02*
X187370000Y-114090000D01*
X187370000Y-114090000D02*
X187370000Y-117709630D01*
X187370000Y-117709630D02*
X187370000Y-120010000D01*
D25*
G36*
X181601043Y-104766372D02*
X182130839Y-105297093D01*
X182823405Y-105584672D01*
X183573305Y-105585326D01*
X184266372Y-105298957D01*
X184797093Y-104769161D01*
X184847819Y-104647000D01*
X192602151Y-104647000D01*
X192509145Y-104709145D01*
X192149145Y-105069145D01*
X191989470Y-105308115D01*
X191933400Y-105590000D01*
X191933400Y-106924890D01*
X185019145Y-113839145D01*
X184859470Y-114078115D01*
X184803400Y-114360000D01*
X184803400Y-115614178D01*
X184747808Y-115669673D01*
X184605162Y-116013201D01*
X184604838Y-116385167D01*
X184746883Y-116728943D01*
X185009673Y-116992192D01*
X185353201Y-117134838D01*
X185725167Y-117135162D01*
X185763400Y-117119364D01*
X185763400Y-117574178D01*
X185707808Y-117629673D01*
X185565162Y-117973201D01*
X185564838Y-118345167D01*
X185706883Y-118688943D01*
X185969673Y-118952192D01*
X186313201Y-119094838D01*
X186633400Y-119095117D01*
X186633400Y-119424178D01*
X186577808Y-119479673D01*
X186435162Y-119823201D01*
X186434838Y-120195167D01*
X186576883Y-120538943D01*
X186839673Y-120802192D01*
X187183201Y-120944838D01*
X187555167Y-120945162D01*
X187898943Y-120803117D01*
X188162192Y-120540327D01*
X188304838Y-120196799D01*
X188305162Y-119824833D01*
X188163117Y-119481057D01*
X188106600Y-119424441D01*
X188106600Y-114588676D01*
X188360076Y-114842595D01*
X188703604Y-114985241D01*
X188783601Y-114985311D01*
X189549145Y-115750855D01*
X189788115Y-115910530D01*
X190070000Y-115966600D01*
X193039885Y-115966600D01*
X193047582Y-115985229D01*
X193292024Y-116230098D01*
X193048902Y-116472796D01*
X192845232Y-116963287D01*
X192844769Y-117494383D01*
X193047582Y-117985229D01*
X193292024Y-118230098D01*
X193048902Y-118472796D01*
X192845232Y-118963287D01*
X192844769Y-119494383D01*
X193047582Y-119985229D01*
X193292024Y-120230098D01*
X193048902Y-120472796D01*
X192845232Y-120963287D01*
X192844769Y-121494383D01*
X193047582Y-121985229D01*
X193292024Y-122230098D01*
X193048902Y-122472796D01*
X192845232Y-122963287D01*
X192844769Y-123494383D01*
X193047582Y-123985229D01*
X193422796Y-124361098D01*
X193913287Y-124564768D01*
X194444383Y-124565231D01*
X194685000Y-124465810D01*
X194685000Y-130235000D01*
X171675000Y-130235000D01*
X171675000Y-130084250D01*
X171833000Y-129926250D01*
X171833000Y-128727000D01*
X172087000Y-128727000D01*
X172087000Y-129926250D01*
X172245750Y-130085000D01*
X172536309Y-130085000D01*
X172769698Y-129988327D01*
X172948327Y-129809699D01*
X173045000Y-129576310D01*
X173045000Y-128885750D01*
X172886250Y-128727000D01*
X172087000Y-128727000D01*
X171833000Y-128727000D01*
X171813000Y-128727000D01*
X171813000Y-128473000D01*
X171833000Y-128473000D01*
X171833000Y-127273750D01*
X172087000Y-127273750D01*
X172087000Y-128473000D01*
X172886250Y-128473000D01*
X173045000Y-128314250D01*
X173045000Y-127623690D01*
X172948327Y-127390301D01*
X172769698Y-127211673D01*
X172536309Y-127115000D01*
X172245750Y-127115000D01*
X172087000Y-127273750D01*
X171833000Y-127273750D01*
X171675000Y-127115750D01*
X171675000Y-127050000D01*
X172214250Y-127050000D01*
X172373000Y-126891250D01*
X172373000Y-125917000D01*
X172353000Y-125917000D01*
X172353000Y-125663000D01*
X172373000Y-125663000D01*
X172373000Y-125643000D01*
X172627000Y-125643000D01*
X172627000Y-125663000D01*
X172647000Y-125663000D01*
X172647000Y-125917000D01*
X172627000Y-125917000D01*
X172627000Y-126891250D01*
X172785750Y-127050000D01*
X173376309Y-127050000D01*
X173609698Y-126953327D01*
X173750936Y-126812090D01*
X173785910Y-126866441D01*
X173998110Y-127011431D01*
X174250000Y-127062440D01*
X174623400Y-127062440D01*
X174623400Y-127179838D01*
X174458559Y-127285910D01*
X174313569Y-127498110D01*
X174262560Y-127750000D01*
X174262560Y-129450000D01*
X174306838Y-129685317D01*
X174445910Y-129901441D01*
X174658110Y-130046431D01*
X174910000Y-130097440D01*
X175810000Y-130097440D01*
X176045317Y-130053162D01*
X176261441Y-129914090D01*
X176287935Y-129875315D01*
X176348110Y-129916431D01*
X176600000Y-129967440D01*
X177900000Y-129967440D01*
X178135317Y-129923162D01*
X178351441Y-129784090D01*
X178496431Y-129571890D01*
X178547440Y-129320000D01*
X178547440Y-129279274D01*
X178633691Y-129315000D01*
X179224250Y-129315000D01*
X179383000Y-129156250D01*
X179383000Y-128157000D01*
X179363000Y-128157000D01*
X179363000Y-127903000D01*
X179383000Y-127903000D01*
X179383000Y-125957000D01*
X179363000Y-125957000D01*
X179363000Y-125703000D01*
X179383000Y-125703000D01*
X179383000Y-125683000D01*
X179637000Y-125683000D01*
X179637000Y-125703000D01*
X179657000Y-125703000D01*
X179657000Y-125957000D01*
X179637000Y-125957000D01*
X179637000Y-127903000D01*
X179657000Y-127903000D01*
X179657000Y-128157000D01*
X179637000Y-128157000D01*
X179637000Y-129156250D01*
X179795750Y-129315000D01*
X180386309Y-129315000D01*
X180619698Y-129218327D01*
X180798327Y-129039699D01*
X180854654Y-128903713D01*
X180856838Y-128915317D01*
X180995910Y-129131441D01*
X181208110Y-129276431D01*
X181460000Y-129327440D01*
X182960000Y-129327440D01*
X183195317Y-129283162D01*
X183291087Y-129221536D01*
X183296470Y-129229901D01*
X183508670Y-129374891D01*
X183760560Y-129425900D01*
X184959440Y-129425900D01*
X185194757Y-129381622D01*
X185410881Y-129242550D01*
X185555871Y-129030350D01*
X185606880Y-128778460D01*
X185606880Y-127579580D01*
X185562602Y-127344263D01*
X185423530Y-127128139D01*
X185422533Y-127127457D01*
X185555871Y-126932310D01*
X185606880Y-126680420D01*
X185606880Y-125481540D01*
X185562602Y-125246223D01*
X185423530Y-125030099D01*
X185211330Y-124885109D01*
X184959440Y-124834100D01*
X183760560Y-124834100D01*
X183525243Y-124878378D01*
X183365342Y-124981271D01*
X183363162Y-124969683D01*
X183224090Y-124753559D01*
X183011890Y-124608569D01*
X182809147Y-124567513D01*
X182772663Y-124384095D01*
X182729482Y-124319470D01*
X182593717Y-124116283D01*
X182593714Y-124116281D01*
X182113717Y-123636283D01*
X181845906Y-123457337D01*
X181530000Y-123394500D01*
X179022933Y-123394500D01*
X179583714Y-122833719D01*
X179583717Y-122833717D01*
X179762663Y-122565905D01*
X179768578Y-122536169D01*
X179825501Y-122250000D01*
X179825500Y-122249995D01*
X179825500Y-118450113D01*
X179934838Y-118186799D01*
X179935162Y-117814833D01*
X179825500Y-117549430D01*
X179825500Y-112050000D01*
X179762663Y-111734095D01*
X179583717Y-111466283D01*
X179583714Y-111466281D01*
X173514855Y-105397421D01*
X173515231Y-104965617D01*
X173383581Y-104647000D01*
X181551720Y-104647000D01*
X181601043Y-104766372D01*
X181601043Y-104766372D01*
G37*
X181601043Y-104766372D02*
X182130839Y-105297093D01*
X182823405Y-105584672D01*
X183573305Y-105585326D01*
X184266372Y-105298957D01*
X184797093Y-104769161D01*
X184847819Y-104647000D01*
X192602151Y-104647000D01*
X192509145Y-104709145D01*
X192149145Y-105069145D01*
X191989470Y-105308115D01*
X191933400Y-105590000D01*
X191933400Y-106924890D01*
X185019145Y-113839145D01*
X184859470Y-114078115D01*
X184803400Y-114360000D01*
X184803400Y-115614178D01*
X184747808Y-115669673D01*
X184605162Y-116013201D01*
X184604838Y-116385167D01*
X184746883Y-116728943D01*
X185009673Y-116992192D01*
X185353201Y-117134838D01*
X185725167Y-117135162D01*
X185763400Y-117119364D01*
X185763400Y-117574178D01*
X185707808Y-117629673D01*
X185565162Y-117973201D01*
X185564838Y-118345167D01*
X185706883Y-118688943D01*
X185969673Y-118952192D01*
X186313201Y-119094838D01*
X186633400Y-119095117D01*
X186633400Y-119424178D01*
X186577808Y-119479673D01*
X186435162Y-119823201D01*
X186434838Y-120195167D01*
X186576883Y-120538943D01*
X186839673Y-120802192D01*
X187183201Y-120944838D01*
X187555167Y-120945162D01*
X187898943Y-120803117D01*
X188162192Y-120540327D01*
X188304838Y-120196799D01*
X188305162Y-119824833D01*
X188163117Y-119481057D01*
X188106600Y-119424441D01*
X188106600Y-114588676D01*
X188360076Y-114842595D01*
X188703604Y-114985241D01*
X188783601Y-114985311D01*
X189549145Y-115750855D01*
X189788115Y-115910530D01*
X190070000Y-115966600D01*
X193039885Y-115966600D01*
X193047582Y-115985229D01*
X193292024Y-116230098D01*
X193048902Y-116472796D01*
X192845232Y-116963287D01*
X192844769Y-117494383D01*
X193047582Y-117985229D01*
X193292024Y-118230098D01*
X193048902Y-118472796D01*
X192845232Y-118963287D01*
X192844769Y-119494383D01*
X193047582Y-119985229D01*
X193292024Y-120230098D01*
X193048902Y-120472796D01*
X192845232Y-120963287D01*
X192844769Y-121494383D01*
X193047582Y-121985229D01*
X193292024Y-122230098D01*
X193048902Y-122472796D01*
X192845232Y-122963287D01*
X192844769Y-123494383D01*
X193047582Y-123985229D01*
X193422796Y-124361098D01*
X193913287Y-124564768D01*
X194444383Y-124565231D01*
X194685000Y-124465810D01*
X194685000Y-130235000D01*
X171675000Y-130235000D01*
X171675000Y-130084250D01*
X171833000Y-129926250D01*
X171833000Y-128727000D01*
X172087000Y-128727000D01*
X172087000Y-129926250D01*
X172245750Y-130085000D01*
X172536309Y-130085000D01*
X172769698Y-129988327D01*
X172948327Y-129809699D01*
X173045000Y-129576310D01*
X173045000Y-128885750D01*
X172886250Y-128727000D01*
X172087000Y-128727000D01*
X171833000Y-128727000D01*
X171813000Y-128727000D01*
X171813000Y-128473000D01*
X171833000Y-128473000D01*
X171833000Y-127273750D01*
X172087000Y-127273750D01*
X172087000Y-128473000D01*
X172886250Y-128473000D01*
X173045000Y-128314250D01*
X173045000Y-127623690D01*
X172948327Y-127390301D01*
X172769698Y-127211673D01*
X172536309Y-127115000D01*
X172245750Y-127115000D01*
X172087000Y-127273750D01*
X171833000Y-127273750D01*
X171675000Y-127115750D01*
X171675000Y-127050000D01*
X172214250Y-127050000D01*
X172373000Y-126891250D01*
X172373000Y-125917000D01*
X172353000Y-125917000D01*
X172353000Y-125663000D01*
X172373000Y-125663000D01*
X172373000Y-125643000D01*
X172627000Y-125643000D01*
X172627000Y-125663000D01*
X172647000Y-125663000D01*
X172647000Y-125917000D01*
X172627000Y-125917000D01*
X172627000Y-126891250D01*
X172785750Y-127050000D01*
X173376309Y-127050000D01*
X173609698Y-126953327D01*
X173750936Y-126812090D01*
X173785910Y-126866441D01*
X173998110Y-127011431D01*
X174250000Y-127062440D01*
X174623400Y-127062440D01*
X174623400Y-127179838D01*
X174458559Y-127285910D01*
X174313569Y-127498110D01*
X174262560Y-127750000D01*
X174262560Y-129450000D01*
X174306838Y-129685317D01*
X174445910Y-129901441D01*
X174658110Y-130046431D01*
X174910000Y-130097440D01*
X175810000Y-130097440D01*
X176045317Y-130053162D01*
X176261441Y-129914090D01*
X176287935Y-129875315D01*
X176348110Y-129916431D01*
X176600000Y-129967440D01*
X177900000Y-129967440D01*
X178135317Y-129923162D01*
X178351441Y-129784090D01*
X178496431Y-129571890D01*
X178547440Y-129320000D01*
X178547440Y-129279274D01*
X178633691Y-129315000D01*
X179224250Y-129315000D01*
X179383000Y-129156250D01*
X179383000Y-128157000D01*
X179363000Y-128157000D01*
X179363000Y-127903000D01*
X179383000Y-127903000D01*
X179383000Y-125957000D01*
X179363000Y-125957000D01*
X179363000Y-125703000D01*
X179383000Y-125703000D01*
X179383000Y-125683000D01*
X179637000Y-125683000D01*
X179637000Y-125703000D01*
X179657000Y-125703000D01*
X179657000Y-125957000D01*
X179637000Y-125957000D01*
X179637000Y-127903000D01*
X179657000Y-127903000D01*
X179657000Y-128157000D01*
X179637000Y-128157000D01*
X179637000Y-129156250D01*
X179795750Y-129315000D01*
X180386309Y-129315000D01*
X180619698Y-129218327D01*
X180798327Y-129039699D01*
X180854654Y-128903713D01*
X180856838Y-128915317D01*
X180995910Y-129131441D01*
X181208110Y-129276431D01*
X181460000Y-129327440D01*
X182960000Y-129327440D01*
X183195317Y-129283162D01*
X183291087Y-129221536D01*
X183296470Y-129229901D01*
X183508670Y-129374891D01*
X183760560Y-129425900D01*
X184959440Y-129425900D01*
X185194757Y-129381622D01*
X185410881Y-129242550D01*
X185555871Y-129030350D01*
X185606880Y-128778460D01*
X185606880Y-127579580D01*
X185562602Y-127344263D01*
X185423530Y-127128139D01*
X185422533Y-127127457D01*
X185555871Y-126932310D01*
X185606880Y-126680420D01*
X185606880Y-125481540D01*
X185562602Y-125246223D01*
X185423530Y-125030099D01*
X185211330Y-124885109D01*
X184959440Y-124834100D01*
X183760560Y-124834100D01*
X183525243Y-124878378D01*
X183365342Y-124981271D01*
X183363162Y-124969683D01*
X183224090Y-124753559D01*
X183011890Y-124608569D01*
X182809147Y-124567513D01*
X182772663Y-124384095D01*
X182729482Y-124319470D01*
X182593717Y-124116283D01*
X182593714Y-124116281D01*
X182113717Y-123636283D01*
X181845906Y-123457337D01*
X181530000Y-123394500D01*
X179022933Y-123394500D01*
X179583714Y-122833719D01*
X179583717Y-122833717D01*
X179762663Y-122565905D01*
X179768578Y-122536169D01*
X179825501Y-122250000D01*
X179825500Y-122249995D01*
X179825500Y-118450113D01*
X179934838Y-118186799D01*
X179935162Y-117814833D01*
X179825500Y-117549430D01*
X179825500Y-112050000D01*
X179762663Y-111734095D01*
X179583717Y-111466283D01*
X179583714Y-111466281D01*
X173514855Y-105397421D01*
X173515231Y-104965617D01*
X173383581Y-104647000D01*
X181551720Y-104647000D01*
X181601043Y-104766372D01*
G36*
X177293400Y-115425110D02*
X177293400Y-121664890D01*
X174479145Y-124479145D01*
X174453477Y-124517560D01*
X174250000Y-124517560D01*
X174014683Y-124561838D01*
X173798559Y-124700910D01*
X173752031Y-124769006D01*
X173609698Y-124626673D01*
X173376309Y-124530000D01*
X172785750Y-124530000D01*
X172627002Y-124688748D01*
X172627002Y-124530000D01*
X172562499Y-124530000D01*
X172873831Y-124401042D01*
X172935669Y-124165275D01*
X172180000Y-123409605D01*
X172165858Y-123423748D01*
X171986253Y-123244143D01*
X172000395Y-123230000D01*
X172359605Y-123230000D01*
X173115275Y-123985669D01*
X173351042Y-123923831D01*
X173527419Y-123422878D01*
X173498664Y-122892560D01*
X173351042Y-122536169D01*
X173115275Y-122474331D01*
X172359605Y-123230000D01*
X172000395Y-123230000D01*
X171986253Y-123215858D01*
X172165858Y-123036252D01*
X172180000Y-123050395D01*
X172820621Y-122409773D01*
X172935229Y-122362418D01*
X173311098Y-121987204D01*
X173514768Y-121496713D01*
X173515231Y-120965617D01*
X173312418Y-120474771D01*
X173067976Y-120229902D01*
X173311098Y-119987204D01*
X173514768Y-119496713D01*
X173515231Y-118965617D01*
X173312418Y-118474771D01*
X173067976Y-118229902D01*
X173311098Y-117987204D01*
X173514768Y-117496713D01*
X173515231Y-116965617D01*
X173312418Y-116474771D01*
X173067976Y-116229902D01*
X173311098Y-115987204D01*
X173514768Y-115496713D01*
X173515231Y-114965617D01*
X173312418Y-114474771D01*
X173067976Y-114229902D01*
X173311098Y-113987204D01*
X173319654Y-113966600D01*
X175834890Y-113966600D01*
X177293400Y-115425110D01*
X177293400Y-115425110D01*
G37*
X177293400Y-115425110D02*
X177293400Y-121664890D01*
X174479145Y-124479145D01*
X174453477Y-124517560D01*
X174250000Y-124517560D01*
X174014683Y-124561838D01*
X173798559Y-124700910D01*
X173752031Y-124769006D01*
X173609698Y-124626673D01*
X173376309Y-124530000D01*
X172785750Y-124530000D01*
X172627002Y-124688748D01*
X172627002Y-124530000D01*
X172562499Y-124530000D01*
X172873831Y-124401042D01*
X172935669Y-124165275D01*
X172180000Y-123409605D01*
X172165858Y-123423748D01*
X171986253Y-123244143D01*
X172000395Y-123230000D01*
X172359605Y-123230000D01*
X173115275Y-123985669D01*
X173351042Y-123923831D01*
X173527419Y-123422878D01*
X173498664Y-122892560D01*
X173351042Y-122536169D01*
X173115275Y-122474331D01*
X172359605Y-123230000D01*
X172000395Y-123230000D01*
X171986253Y-123215858D01*
X172165858Y-123036252D01*
X172180000Y-123050395D01*
X172820621Y-122409773D01*
X172935229Y-122362418D01*
X173311098Y-121987204D01*
X173514768Y-121496713D01*
X173515231Y-120965617D01*
X173312418Y-120474771D01*
X173067976Y-120229902D01*
X173311098Y-119987204D01*
X173514768Y-119496713D01*
X173515231Y-118965617D01*
X173312418Y-118474771D01*
X173067976Y-118229902D01*
X173311098Y-117987204D01*
X173514768Y-117496713D01*
X173515231Y-116965617D01*
X173312418Y-116474771D01*
X173067976Y-116229902D01*
X173311098Y-115987204D01*
X173514768Y-115496713D01*
X173515231Y-114965617D01*
X173312418Y-114474771D01*
X173067976Y-114229902D01*
X173311098Y-113987204D01*
X173319654Y-113966600D01*
X175834890Y-113966600D01*
X177293400Y-115425110D01*
M02*
