G04 #@! TF.FileFunction,Legend,Top*
%FSLAX46Y46*%
G04 Gerber Fmt 4.6, Leading zero omitted, Abs format (unit mm)*
G04 Created by KiCad (PCBNEW 4.0.4-stable) date 12/30/16 23:23:28*
%MOMM*%
%LPD*%
G01*
G04 APERTURE LIST*
%ADD10C,0.100000*%
%ADD11C,0.300000*%
%ADD12C,0.150000*%
%ADD13C,0.010000*%
%ADD14C,0.110000*%
G04 APERTURE END LIST*
D10*
X178477620Y-121002857D02*
X178572858Y-121336190D01*
X178668096Y-121098095D01*
X178763334Y-121336190D01*
X178858572Y-121002857D01*
X179001430Y-121002857D02*
X179096668Y-121336190D01*
X179191906Y-121098095D01*
X179287144Y-121336190D01*
X179382382Y-121002857D01*
X179525240Y-121002857D02*
X179620478Y-121336190D01*
X179715716Y-121098095D01*
X179810954Y-121336190D01*
X179906192Y-121002857D01*
X180096669Y-121288571D02*
X180120478Y-121312381D01*
X180096669Y-121336190D01*
X180072859Y-121312381D01*
X180096669Y-121288571D01*
X180096669Y-121336190D01*
X180263335Y-121002857D02*
X180453811Y-121002857D01*
X180334764Y-120836190D02*
X180334764Y-121264762D01*
X180358573Y-121312381D01*
X180406192Y-121336190D01*
X180453811Y-121336190D01*
X180620478Y-121336190D02*
X180620478Y-120836190D01*
X180834763Y-121336190D02*
X180834763Y-121074286D01*
X180810954Y-121026667D01*
X180763335Y-121002857D01*
X180691906Y-121002857D01*
X180644287Y-121026667D01*
X180620478Y-121050476D01*
X181072859Y-121336190D02*
X181072859Y-121002857D01*
X181072859Y-120836190D02*
X181049049Y-120860000D01*
X181072859Y-120883810D01*
X181096668Y-120860000D01*
X181072859Y-120836190D01*
X181072859Y-120883810D01*
X181310954Y-121002857D02*
X181310954Y-121336190D01*
X181310954Y-121050476D02*
X181334763Y-121026667D01*
X181382382Y-121002857D01*
X181453811Y-121002857D01*
X181501430Y-121026667D01*
X181525239Y-121074286D01*
X181525239Y-121336190D01*
X181977620Y-121002857D02*
X181977620Y-121407619D01*
X181953811Y-121455238D01*
X181930001Y-121479048D01*
X181882382Y-121502857D01*
X181810954Y-121502857D01*
X181763335Y-121479048D01*
X181977620Y-121312381D02*
X181930001Y-121336190D01*
X181834763Y-121336190D01*
X181787144Y-121312381D01*
X181763335Y-121288571D01*
X181739525Y-121240952D01*
X181739525Y-121098095D01*
X181763335Y-121050476D01*
X181787144Y-121026667D01*
X181834763Y-121002857D01*
X181930001Y-121002857D01*
X181977620Y-121026667D01*
X182144287Y-121002857D02*
X182334763Y-121002857D01*
X182215716Y-120836190D02*
X182215716Y-121264762D01*
X182239525Y-121312381D01*
X182287144Y-121336190D01*
X182334763Y-121336190D01*
X182501430Y-121336190D02*
X182501430Y-121002857D01*
X182501430Y-121098095D02*
X182525239Y-121050476D01*
X182549049Y-121026667D01*
X182596668Y-121002857D01*
X182644287Y-121002857D01*
X182882382Y-121336190D02*
X182834763Y-121312381D01*
X182810954Y-121288571D01*
X182787144Y-121240952D01*
X182787144Y-121098095D01*
X182810954Y-121050476D01*
X182834763Y-121026667D01*
X182882382Y-121002857D01*
X182953811Y-121002857D01*
X183001430Y-121026667D01*
X183025239Y-121050476D01*
X183049049Y-121098095D01*
X183049049Y-121240952D01*
X183025239Y-121288571D01*
X183001430Y-121312381D01*
X182953811Y-121336190D01*
X182882382Y-121336190D01*
X183263335Y-121002857D02*
X183263335Y-121336190D01*
X183263335Y-121050476D02*
X183287144Y-121026667D01*
X183334763Y-121002857D01*
X183406192Y-121002857D01*
X183453811Y-121026667D01*
X183477620Y-121074286D01*
X183477620Y-121336190D01*
X183715716Y-121336190D02*
X183715716Y-121002857D01*
X183715716Y-120836190D02*
X183691906Y-120860000D01*
X183715716Y-120883810D01*
X183739525Y-120860000D01*
X183715716Y-120836190D01*
X183715716Y-120883810D01*
X184168096Y-121312381D02*
X184120477Y-121336190D01*
X184025239Y-121336190D01*
X183977620Y-121312381D01*
X183953811Y-121288571D01*
X183930001Y-121240952D01*
X183930001Y-121098095D01*
X183953811Y-121050476D01*
X183977620Y-121026667D01*
X184025239Y-121002857D01*
X184120477Y-121002857D01*
X184168096Y-121026667D01*
X184358572Y-121312381D02*
X184406191Y-121336190D01*
X184501429Y-121336190D01*
X184549048Y-121312381D01*
X184572858Y-121264762D01*
X184572858Y-121240952D01*
X184549048Y-121193333D01*
X184501429Y-121169524D01*
X184430001Y-121169524D01*
X184382382Y-121145714D01*
X184358572Y-121098095D01*
X184358572Y-121074286D01*
X184382382Y-121026667D01*
X184430001Y-121002857D01*
X184501429Y-121002857D01*
X184549048Y-121026667D01*
X184787144Y-121288571D02*
X184810953Y-121312381D01*
X184787144Y-121336190D01*
X184763334Y-121312381D01*
X184787144Y-121288571D01*
X184787144Y-121336190D01*
X185239524Y-121312381D02*
X185191905Y-121336190D01*
X185096667Y-121336190D01*
X185049048Y-121312381D01*
X185025239Y-121288571D01*
X185001429Y-121240952D01*
X185001429Y-121098095D01*
X185025239Y-121050476D01*
X185049048Y-121026667D01*
X185096667Y-121002857D01*
X185191905Y-121002857D01*
X185239524Y-121026667D01*
X185525238Y-121336190D02*
X185477619Y-121312381D01*
X185453810Y-121288571D01*
X185430000Y-121240952D01*
X185430000Y-121098095D01*
X185453810Y-121050476D01*
X185477619Y-121026667D01*
X185525238Y-121002857D01*
X185596667Y-121002857D01*
X185644286Y-121026667D01*
X185668095Y-121050476D01*
X185691905Y-121098095D01*
X185691905Y-121240952D01*
X185668095Y-121288571D01*
X185644286Y-121312381D01*
X185596667Y-121336190D01*
X185525238Y-121336190D01*
X185906191Y-121336190D02*
X185906191Y-121002857D01*
X185906191Y-121050476D02*
X185930000Y-121026667D01*
X185977619Y-121002857D01*
X186049048Y-121002857D01*
X186096667Y-121026667D01*
X186120476Y-121074286D01*
X186120476Y-121336190D01*
X186120476Y-121074286D02*
X186144286Y-121026667D01*
X186191905Y-121002857D01*
X186263333Y-121002857D01*
X186310953Y-121026667D01*
X186334762Y-121074286D01*
X186334762Y-121336190D01*
D11*
X175651428Y-110313571D02*
X176222857Y-110313571D01*
X175865714Y-109813571D02*
X175865714Y-111099286D01*
X175937142Y-111242143D01*
X176080000Y-111313571D01*
X176222857Y-111313571D01*
X176722857Y-111313571D02*
X176722857Y-109813571D01*
X177365714Y-111313571D02*
X177365714Y-110527857D01*
X177294285Y-110385000D01*
X177151428Y-110313571D01*
X176937143Y-110313571D01*
X176794285Y-110385000D01*
X176722857Y-110456429D01*
X178080000Y-111313571D02*
X178080000Y-110313571D01*
X178080000Y-109813571D02*
X178008571Y-109885000D01*
X178080000Y-109956429D01*
X178151428Y-109885000D01*
X178080000Y-109813571D01*
X178080000Y-109956429D01*
X178794286Y-110313571D02*
X178794286Y-111313571D01*
X178794286Y-110456429D02*
X178865714Y-110385000D01*
X179008572Y-110313571D01*
X179222857Y-110313571D01*
X179365714Y-110385000D01*
X179437143Y-110527857D01*
X179437143Y-111313571D01*
X180794286Y-110313571D02*
X180794286Y-111527857D01*
X180722857Y-111670714D01*
X180651429Y-111742143D01*
X180508572Y-111813571D01*
X180294286Y-111813571D01*
X180151429Y-111742143D01*
X180794286Y-111242143D02*
X180651429Y-111313571D01*
X180365715Y-111313571D01*
X180222857Y-111242143D01*
X180151429Y-111170714D01*
X180080000Y-111027857D01*
X180080000Y-110599286D01*
X180151429Y-110456429D01*
X180222857Y-110385000D01*
X180365715Y-110313571D01*
X180651429Y-110313571D01*
X180794286Y-110385000D01*
X182008572Y-110527857D02*
X182222858Y-110599286D01*
X182294286Y-110670714D01*
X182365715Y-110813571D01*
X182365715Y-111027857D01*
X182294286Y-111170714D01*
X182222858Y-111242143D01*
X182080000Y-111313571D01*
X181508572Y-111313571D01*
X181508572Y-109813571D01*
X182008572Y-109813571D01*
X182151429Y-109885000D01*
X182222858Y-109956429D01*
X182294286Y-110099286D01*
X182294286Y-110242143D01*
X182222858Y-110385000D01*
X182151429Y-110456429D01*
X182008572Y-110527857D01*
X181508572Y-110527857D01*
X183222858Y-111313571D02*
X183080000Y-111242143D01*
X183008572Y-111170714D01*
X182937143Y-111027857D01*
X182937143Y-110599286D01*
X183008572Y-110456429D01*
X183080000Y-110385000D01*
X183222858Y-110313571D01*
X183437143Y-110313571D01*
X183580000Y-110385000D01*
X183651429Y-110456429D01*
X183722858Y-110599286D01*
X183722858Y-111027857D01*
X183651429Y-111170714D01*
X183580000Y-111242143D01*
X183437143Y-111313571D01*
X183222858Y-111313571D01*
X184151429Y-110313571D02*
X184722858Y-110313571D01*
X184365715Y-109813571D02*
X184365715Y-111099286D01*
X184437143Y-111242143D01*
X184580001Y-111313571D01*
X184722858Y-111313571D01*
X185222858Y-110742143D02*
X186365715Y-110742143D01*
X187794287Y-111313571D02*
X187080001Y-111313571D01*
X187080001Y-109813571D01*
X188508573Y-111313571D02*
X188365715Y-111242143D01*
X188294287Y-111170714D01*
X188222858Y-111027857D01*
X188222858Y-110599286D01*
X188294287Y-110456429D01*
X188365715Y-110385000D01*
X188508573Y-110313571D01*
X188722858Y-110313571D01*
X188865715Y-110385000D01*
X188937144Y-110456429D01*
X189008573Y-110599286D01*
X189008573Y-111027857D01*
X188937144Y-111170714D01*
X188865715Y-111242143D01*
X188722858Y-111313571D01*
X188508573Y-111313571D01*
X190508573Y-111313571D02*
X190008573Y-110599286D01*
X189651430Y-111313571D02*
X189651430Y-109813571D01*
X190222858Y-109813571D01*
X190365716Y-109885000D01*
X190437144Y-109956429D01*
X190508573Y-110099286D01*
X190508573Y-110313571D01*
X190437144Y-110456429D01*
X190365716Y-110527857D01*
X190222858Y-110599286D01*
X189651430Y-110599286D01*
X191794287Y-111313571D02*
X191794287Y-110527857D01*
X191722858Y-110385000D01*
X191580001Y-110313571D01*
X191294287Y-110313571D01*
X191151430Y-110385000D01*
X191794287Y-111242143D02*
X191651430Y-111313571D01*
X191294287Y-111313571D01*
X191151430Y-111242143D01*
X191080001Y-111099286D01*
X191080001Y-110956429D01*
X191151430Y-110813571D01*
X191294287Y-110742143D01*
X191651430Y-110742143D01*
X191794287Y-110670714D01*
X186830000Y-112863571D02*
X187187143Y-113863571D01*
X187544285Y-112863571D01*
X188901428Y-113863571D02*
X188044285Y-113863571D01*
X188472857Y-113863571D02*
X188472857Y-112363571D01*
X188330000Y-112577857D01*
X188187142Y-112720714D01*
X188044285Y-112792143D01*
X189544285Y-113720714D02*
X189615713Y-113792143D01*
X189544285Y-113863571D01*
X189472856Y-113792143D01*
X189544285Y-113720714D01*
X189544285Y-113863571D01*
X190544285Y-112363571D02*
X190687142Y-112363571D01*
X190829999Y-112435000D01*
X190901428Y-112506429D01*
X190972857Y-112649286D01*
X191044285Y-112935000D01*
X191044285Y-113292143D01*
X190972857Y-113577857D01*
X190901428Y-113720714D01*
X190829999Y-113792143D01*
X190687142Y-113863571D01*
X190544285Y-113863571D01*
X190401428Y-113792143D01*
X190329999Y-113720714D01*
X190258571Y-113577857D01*
X190187142Y-113292143D01*
X190187142Y-112935000D01*
X190258571Y-112649286D01*
X190329999Y-112506429D01*
X190401428Y-112435000D01*
X190544285Y-112363571D01*
D12*
X180260000Y-126680000D02*
X181260000Y-126680000D01*
X181260000Y-124980000D02*
X180260000Y-124980000D01*
X176375000Y-127820000D02*
X176375000Y-126620000D01*
X178125000Y-126620000D02*
X178125000Y-127820000D01*
X170990000Y-104530000D02*
X170990000Y-130940000D01*
X170990000Y-130940000D02*
X195370000Y-130940000D01*
X195370000Y-130940000D02*
X195370000Y-104530000D01*
X195370000Y-104530000D02*
X187780000Y-98000000D01*
X187780000Y-98000000D02*
X178580000Y-98000000D01*
X178580000Y-98000000D02*
X170990000Y-104530000D01*
X185110000Y-128730000D02*
X185110000Y-126030000D01*
X183610000Y-128730000D02*
X183610000Y-126030000D01*
X184510000Y-127230000D02*
X184260000Y-127230000D01*
X184260000Y-127230000D02*
X184410000Y-127380000D01*
X184010000Y-127480000D02*
X184710000Y-127480000D01*
X184360000Y-127130000D02*
X184360000Y-126780000D01*
X184360000Y-127480000D02*
X184010000Y-127130000D01*
X184010000Y-127130000D02*
X184710000Y-127130000D01*
X184710000Y-127130000D02*
X184360000Y-127480000D01*
X173250000Y-126640000D02*
X174250000Y-126640000D01*
X174250000Y-124940000D02*
X173250000Y-124940000D01*
X180260000Y-127155000D02*
X181460000Y-127155000D01*
X181460000Y-128905000D02*
X180260000Y-128905000D01*
X174410000Y-128600000D02*
G75*
G03X174410000Y-128600000I-750000J0D01*
G01*
X172010000Y-129700000D02*
X172010000Y-130000000D01*
X172010000Y-130000000D02*
X175310000Y-130000000D01*
X175310000Y-130000000D02*
X175310000Y-129700000D01*
X172010000Y-127500000D02*
X172010000Y-127200000D01*
X172010000Y-127200000D02*
X175310000Y-127200000D01*
X175310000Y-127200000D02*
X175310000Y-127500000D01*
D10*
X179805000Y-94950000D02*
X186725000Y-94950000D01*
X186725000Y-98000000D02*
X186725000Y-94950000D01*
X186725000Y-98000000D02*
X179805000Y-98000000D01*
X179805000Y-98000000D02*
X179805000Y-94950000D01*
D13*
G36*
X185616666Y-120756666D02*
X178928000Y-120756666D01*
X178928000Y-117665377D01*
X179279415Y-117665377D01*
X179280412Y-117683193D01*
X179380757Y-118301690D01*
X179615237Y-118849418D01*
X179999566Y-119360246D01*
X180113503Y-119478773D01*
X180548963Y-119852178D01*
X181012055Y-120109298D01*
X181567303Y-120284944D01*
X181637333Y-120300909D01*
X182008404Y-120375236D01*
X182289911Y-120404462D01*
X182555161Y-120389830D01*
X182877456Y-120332581D01*
X182924332Y-120322719D01*
X183616090Y-120102469D01*
X184212220Y-119764316D01*
X184698849Y-119323919D01*
X185062103Y-118796940D01*
X185288112Y-118199040D01*
X185363085Y-117569562D01*
X185335259Y-117134907D01*
X185260783Y-116726570D01*
X185215055Y-116574861D01*
X185098078Y-116322699D01*
X184931524Y-116052275D01*
X184743098Y-115798423D01*
X184560507Y-115595980D01*
X184411454Y-115479779D01*
X184337060Y-115470937D01*
X184279392Y-115454245D01*
X184281068Y-115407793D01*
X184233704Y-115312184D01*
X184162142Y-115294586D01*
X183998126Y-115252406D01*
X183950475Y-115217512D01*
X183940400Y-115180890D01*
X183986833Y-115202422D01*
X184080917Y-115231779D01*
X184092666Y-115217717D01*
X184019580Y-115133296D01*
X183839190Y-115036066D01*
X183609796Y-114948550D01*
X183389701Y-114893272D01*
X183245262Y-114890327D01*
X183112232Y-114902893D01*
X183100694Y-114859619D01*
X183045611Y-114821440D01*
X182838168Y-114794301D01*
X182495081Y-114779850D01*
X182272333Y-114777897D01*
X181866265Y-114785213D01*
X181587284Y-114806062D01*
X181452105Y-114838794D01*
X181443972Y-114859619D01*
X181420281Y-114906648D01*
X181311789Y-114893566D01*
X181184395Y-114884291D01*
X181185438Y-114936950D01*
X181180120Y-114992302D01*
X181100889Y-114974045D01*
X180983743Y-114967909D01*
X180960000Y-115006987D01*
X180907972Y-115055075D01*
X180875333Y-115041666D01*
X180797439Y-115051188D01*
X180790666Y-115083999D01*
X180743055Y-115142795D01*
X180716085Y-115132566D01*
X180601172Y-115151832D01*
X180412253Y-115272700D01*
X180183224Y-115466269D01*
X179947984Y-115703638D01*
X179740428Y-115955909D01*
X179724569Y-115977926D01*
X179445693Y-116479959D01*
X179300654Y-117029599D01*
X179279415Y-117665377D01*
X178928000Y-117665377D01*
X178928000Y-114068000D01*
X185616666Y-114068000D01*
X185616666Y-120756666D01*
X185616666Y-120756666D01*
G37*
X185616666Y-120756666D02*
X178928000Y-120756666D01*
X178928000Y-117665377D01*
X179279415Y-117665377D01*
X179280412Y-117683193D01*
X179380757Y-118301690D01*
X179615237Y-118849418D01*
X179999566Y-119360246D01*
X180113503Y-119478773D01*
X180548963Y-119852178D01*
X181012055Y-120109298D01*
X181567303Y-120284944D01*
X181637333Y-120300909D01*
X182008404Y-120375236D01*
X182289911Y-120404462D01*
X182555161Y-120389830D01*
X182877456Y-120332581D01*
X182924332Y-120322719D01*
X183616090Y-120102469D01*
X184212220Y-119764316D01*
X184698849Y-119323919D01*
X185062103Y-118796940D01*
X185288112Y-118199040D01*
X185363085Y-117569562D01*
X185335259Y-117134907D01*
X185260783Y-116726570D01*
X185215055Y-116574861D01*
X185098078Y-116322699D01*
X184931524Y-116052275D01*
X184743098Y-115798423D01*
X184560507Y-115595980D01*
X184411454Y-115479779D01*
X184337060Y-115470937D01*
X184279392Y-115454245D01*
X184281068Y-115407793D01*
X184233704Y-115312184D01*
X184162142Y-115294586D01*
X183998126Y-115252406D01*
X183950475Y-115217512D01*
X183940400Y-115180890D01*
X183986833Y-115202422D01*
X184080917Y-115231779D01*
X184092666Y-115217717D01*
X184019580Y-115133296D01*
X183839190Y-115036066D01*
X183609796Y-114948550D01*
X183389701Y-114893272D01*
X183245262Y-114890327D01*
X183112232Y-114902893D01*
X183100694Y-114859619D01*
X183045611Y-114821440D01*
X182838168Y-114794301D01*
X182495081Y-114779850D01*
X182272333Y-114777897D01*
X181866265Y-114785213D01*
X181587284Y-114806062D01*
X181452105Y-114838794D01*
X181443972Y-114859619D01*
X181420281Y-114906648D01*
X181311789Y-114893566D01*
X181184395Y-114884291D01*
X181185438Y-114936950D01*
X181180120Y-114992302D01*
X181100889Y-114974045D01*
X180983743Y-114967909D01*
X180960000Y-115006987D01*
X180907972Y-115055075D01*
X180875333Y-115041666D01*
X180797439Y-115051188D01*
X180790666Y-115083999D01*
X180743055Y-115142795D01*
X180716085Y-115132566D01*
X180601172Y-115151832D01*
X180412253Y-115272700D01*
X180183224Y-115466269D01*
X179947984Y-115703638D01*
X179740428Y-115955909D01*
X179724569Y-115977926D01*
X179445693Y-116479959D01*
X179300654Y-117029599D01*
X179279415Y-117665377D01*
X178928000Y-117665377D01*
X178928000Y-114068000D01*
X185616666Y-114068000D01*
X185616666Y-120756666D01*
G36*
X182481996Y-114954539D02*
X182713617Y-114988853D01*
X183388463Y-115166516D01*
X183969134Y-115473843D01*
X184380414Y-115817325D01*
X184631361Y-116092399D01*
X184753607Y-116292724D01*
X184743667Y-116410059D01*
X184643000Y-116438666D01*
X184558756Y-116439663D01*
X184528805Y-116470798D01*
X184552876Y-116574287D01*
X184630699Y-116792346D01*
X184640558Y-116819666D01*
X184764418Y-117395124D01*
X184720415Y-117970777D01*
X184508060Y-118549512D01*
X184284508Y-118921505D01*
X184153699Y-119133156D01*
X184125477Y-119255118D01*
X184173121Y-119314730D01*
X184199459Y-119385360D01*
X184093972Y-119498603D01*
X183913862Y-119625099D01*
X183690077Y-119778416D01*
X183526853Y-119905150D01*
X183480129Y-119951540D01*
X183423063Y-119986318D01*
X183416629Y-119963133D01*
X183365046Y-119942851D01*
X183306038Y-119979972D01*
X183150672Y-120055429D01*
X182921412Y-120115789D01*
X182903871Y-120118798D01*
X182632015Y-120165959D01*
X182395252Y-120210766D01*
X182214477Y-120225510D01*
X182126353Y-120201464D01*
X182013787Y-120159125D01*
X181805873Y-120123880D01*
X181765172Y-120119684D01*
X181524215Y-120073171D01*
X181438673Y-120037000D01*
X181552666Y-120037000D01*
X181595000Y-120079333D01*
X181637333Y-120037000D01*
X181595000Y-119994666D01*
X181552666Y-120037000D01*
X181438673Y-120037000D01*
X181345742Y-119997705D01*
X181333525Y-119988463D01*
X181209978Y-119924340D01*
X181162565Y-119933212D01*
X181073130Y-119919956D01*
X180961010Y-119839444D01*
X180776414Y-119686451D01*
X180579666Y-119540632D01*
X180429827Y-119401747D01*
X180437265Y-119298272D01*
X180439717Y-119295748D01*
X180459033Y-119173957D01*
X180344303Y-118969711D01*
X180322736Y-118940892D01*
X180145401Y-118669232D01*
X179994923Y-118377066D01*
X179988952Y-118362995D01*
X179901463Y-118026126D01*
X179864381Y-117603443D01*
X179866998Y-117527055D01*
X180167684Y-117527055D01*
X180182937Y-117881062D01*
X180247464Y-118206545D01*
X180318744Y-118386000D01*
X180508843Y-118699615D01*
X180697677Y-118916495D01*
X180861125Y-119011786D01*
X180921960Y-119007636D01*
X180964664Y-118941426D01*
X180904616Y-118796514D01*
X180785697Y-118619703D01*
X180523443Y-118161778D01*
X180411828Y-117701597D01*
X180417301Y-117625485D01*
X180706000Y-117625485D01*
X180764934Y-117948146D01*
X180919178Y-118300729D01*
X181110332Y-118576500D01*
X181260743Y-118708147D01*
X181375793Y-118699082D01*
X181407894Y-118671883D01*
X181395040Y-118578720D01*
X181298809Y-118410037D01*
X181253374Y-118347313D01*
X181041860Y-117967973D01*
X180992196Y-117578611D01*
X181069475Y-117223997D01*
X181143838Y-116963171D01*
X181136941Y-116823962D01*
X181046033Y-116777954D01*
X181026235Y-116777333D01*
X180939498Y-116851629D01*
X180844450Y-117038029D01*
X180761754Y-117281803D01*
X180712077Y-117528219D01*
X180706000Y-117625485D01*
X180417301Y-117625485D01*
X180447411Y-117206782D01*
X180586532Y-116745901D01*
X180582394Y-116628874D01*
X180513663Y-116608000D01*
X180374695Y-116684996D01*
X180267851Y-116889911D01*
X180197418Y-117183635D01*
X180167684Y-117527055D01*
X179866998Y-117527055D01*
X179879192Y-117171245D01*
X179947379Y-116805828D01*
X179958030Y-116773477D01*
X180012995Y-116568961D01*
X179987956Y-116473396D01*
X179958030Y-116457454D01*
X179874900Y-116398072D01*
X179888919Y-116290599D01*
X180010091Y-116112675D01*
X180219166Y-115873678D01*
X180472872Y-115640442D01*
X180777111Y-115425190D01*
X181102368Y-115240413D01*
X181419127Y-115098602D01*
X181697870Y-115012248D01*
X181909082Y-114993843D01*
X182023248Y-115055878D01*
X182035110Y-115105166D01*
X182045922Y-115241913D01*
X182071188Y-115487372D01*
X182097394Y-115719000D01*
X182122887Y-115996822D01*
X182114504Y-116121202D01*
X182071260Y-116104803D01*
X182067802Y-116100000D01*
X181988446Y-115914986D01*
X181977296Y-115835200D01*
X181915481Y-115668012D01*
X181847088Y-115590413D01*
X181759601Y-115424409D01*
X181768127Y-115326046D01*
X181765808Y-115195481D01*
X181685372Y-115168666D01*
X181591828Y-115171041D01*
X181561859Y-115210000D01*
X181587366Y-115333292D01*
X181631423Y-115486725D01*
X181662989Y-115692715D01*
X181615267Y-115760093D01*
X181508195Y-115677393D01*
X181448351Y-115591999D01*
X181329209Y-115468326D01*
X181204675Y-115420598D01*
X181132469Y-115466805D01*
X181129333Y-115492574D01*
X181193930Y-115613834D01*
X181346152Y-115761803D01*
X181523645Y-115884580D01*
X181655642Y-115930666D01*
X181784869Y-115996906D01*
X181933869Y-116160660D01*
X181963952Y-116205345D01*
X182071995Y-116385325D01*
X182089735Y-116474294D01*
X182018442Y-116523678D01*
X181972266Y-116541283D01*
X181837761Y-116629699D01*
X181806666Y-116694935D01*
X181754957Y-116748040D01*
X181722000Y-116735000D01*
X181661000Y-116620543D01*
X181637333Y-116433669D01*
X181611227Y-116257517D01*
X181548818Y-116184666D01*
X181434872Y-116129537D01*
X181270495Y-115994204D01*
X181243505Y-115967868D01*
X181089577Y-115839029D01*
X180985825Y-115797221D01*
X180975181Y-115802596D01*
X180967841Y-115912376D01*
X181070728Y-116062772D01*
X181248246Y-116208318D01*
X181327643Y-116252786D01*
X181489298Y-116369596D01*
X181552666Y-116485619D01*
X181493818Y-116589676D01*
X181350775Y-116599862D01*
X181173788Y-116525251D01*
X181024790Y-116390294D01*
X180871125Y-116245991D01*
X180768485Y-116257647D01*
X180765681Y-116360760D01*
X180869721Y-116502610D01*
X181036975Y-116644276D01*
X181223813Y-116746837D01*
X181348055Y-116774657D01*
X181528240Y-116803025D01*
X181575517Y-116897800D01*
X181497851Y-117084830D01*
X181462206Y-117145167D01*
X181351294Y-117380290D01*
X181299484Y-117594928D01*
X181298983Y-117610936D01*
X181346399Y-117837862D01*
X181463420Y-118083113D01*
X181611278Y-118276776D01*
X181703993Y-118341286D01*
X181857748Y-118363926D01*
X181892318Y-118287252D01*
X181801878Y-118137739D01*
X181758866Y-118091896D01*
X181584769Y-117818073D01*
X181569572Y-117527029D01*
X181713062Y-117253548D01*
X181764333Y-117200666D01*
X181907794Y-117077826D01*
X181984773Y-117034817D01*
X181987880Y-117037741D01*
X181998037Y-117134862D01*
X182012335Y-117350482D01*
X182024810Y-117581666D01*
X182018614Y-118064788D01*
X181953190Y-118457400D01*
X181835163Y-118733404D01*
X181701638Y-118855391D01*
X181515379Y-118995961D01*
X181432592Y-119105666D01*
X181328252Y-119264351D01*
X181266652Y-119329033D01*
X181236187Y-119430130D01*
X181300753Y-119538966D01*
X181381602Y-119571333D01*
X181449098Y-119498499D01*
X181509008Y-119323365D01*
X181509048Y-119323183D01*
X181587839Y-119115753D01*
X181702864Y-118960920D01*
X181816729Y-118901364D01*
X181861629Y-118920740D01*
X181914027Y-119072166D01*
X181896182Y-119286020D01*
X181821198Y-119477330D01*
X181766438Y-119537930D01*
X181672267Y-119658851D01*
X181676185Y-119735033D01*
X181783108Y-119819911D01*
X181874600Y-119785815D01*
X181891891Y-119719500D01*
X181937074Y-119583217D01*
X182047042Y-119388246D01*
X182066152Y-119359666D01*
X182239856Y-119105666D01*
X182213761Y-119564006D01*
X182214746Y-119877947D01*
X182263415Y-120036888D01*
X182293500Y-120057894D01*
X182357935Y-120024784D01*
X182393807Y-119858802D01*
X182405313Y-119599555D01*
X182411294Y-119105666D01*
X182571175Y-119465500D01*
X182683333Y-119678983D01*
X182784475Y-119807960D01*
X182819194Y-119825333D01*
X182900957Y-119768886D01*
X182865501Y-119611755D01*
X182746082Y-119413350D01*
X182643583Y-119235438D01*
X182650973Y-119106962D01*
X182691339Y-119041235D01*
X182782470Y-118942379D01*
X182865323Y-118975339D01*
X182928516Y-119042954D01*
X183048248Y-119232937D01*
X183089092Y-119352650D01*
X183154133Y-119493274D01*
X183249336Y-119553490D01*
X183320706Y-119511229D01*
X183330666Y-119451388D01*
X183290042Y-119334216D01*
X183251888Y-119317333D01*
X183180099Y-119245343D01*
X183146055Y-119126833D01*
X183052076Y-118944075D01*
X183028514Y-118926343D01*
X183584666Y-118926343D01*
X183644888Y-118981439D01*
X183781269Y-118961320D01*
X183927386Y-118882116D01*
X183979406Y-118830500D01*
X184266544Y-118344231D01*
X184415833Y-117807765D01*
X184419877Y-117262098D01*
X184329658Y-116889177D01*
X184232622Y-116707550D01*
X184125816Y-116612588D01*
X184045887Y-116616002D01*
X184029480Y-116729500D01*
X184045858Y-116798500D01*
X184162468Y-117385826D01*
X184144104Y-117912847D01*
X183992986Y-118360765D01*
X183834490Y-118589487D01*
X183683584Y-118772055D01*
X183594700Y-118900262D01*
X183584666Y-118926343D01*
X183028514Y-118926343D01*
X182933711Y-118855000D01*
X182767889Y-118739133D01*
X182700823Y-118643333D01*
X182687033Y-118608461D01*
X183104476Y-118608461D01*
X183119000Y-118640000D01*
X183227205Y-118718958D01*
X183380303Y-118656299D01*
X183546468Y-118500536D01*
X183787816Y-118121425D01*
X183878449Y-117679880D01*
X183818739Y-117218828D01*
X183721613Y-116961843D01*
X183617370Y-116830255D01*
X183581833Y-116819666D01*
X183489791Y-116885290D01*
X183487751Y-116989000D01*
X183554790Y-117441009D01*
X183567251Y-117772804D01*
X183522393Y-118025372D01*
X183417472Y-118239704D01*
X183402583Y-118262064D01*
X183263930Y-118443845D01*
X183156885Y-118546397D01*
X183135169Y-118554754D01*
X183104476Y-118608461D01*
X182687033Y-118608461D01*
X182621407Y-118442519D01*
X182597176Y-118386000D01*
X182574698Y-118304471D01*
X182650200Y-118349139D01*
X182667541Y-118363285D01*
X182773976Y-118410859D01*
X182895020Y-118350945D01*
X183013937Y-118236285D01*
X183238488Y-117923095D01*
X183299343Y-117615662D01*
X183199887Y-117292220D01*
X183169288Y-117237469D01*
X183051303Y-116987568D01*
X183059571Y-116839672D01*
X183196720Y-116780068D01*
X183257509Y-116777333D01*
X183406499Y-116729518D01*
X183580471Y-116612045D01*
X183738572Y-116463874D01*
X183839948Y-116323963D01*
X183843745Y-116231272D01*
X183836204Y-116225478D01*
X183729543Y-116246766D01*
X183588839Y-116372310D01*
X183575122Y-116389236D01*
X183398289Y-116550031D01*
X183228893Y-116606163D01*
X183108933Y-116553467D01*
X183076666Y-116438666D01*
X183137380Y-116295925D01*
X183232877Y-116269333D01*
X183392379Y-116213405D01*
X183558556Y-116084868D01*
X183661298Y-115942597D01*
X183669333Y-115902833D01*
X183600394Y-115852327D01*
X183542333Y-115846000D01*
X183429698Y-115894046D01*
X183415333Y-115935070D01*
X183343951Y-116021707D01*
X183171182Y-116109186D01*
X183161333Y-116112686D01*
X182986779Y-116200527D01*
X182913019Y-116341491D01*
X182897511Y-116510449D01*
X182882865Y-116670796D01*
X182858136Y-116697263D01*
X182848970Y-116671500D01*
X182743727Y-116549519D01*
X182641236Y-116523333D01*
X182514245Y-116480560D01*
X182499278Y-116333742D01*
X182592026Y-116167231D01*
X182832115Y-116001875D01*
X182931363Y-115952205D01*
X183221366Y-115784320D01*
X183385519Y-115622039D01*
X183408033Y-115483142D01*
X183381512Y-115445289D01*
X183300213Y-115464345D01*
X183196918Y-115575941D01*
X183056892Y-115732609D01*
X182974999Y-115739982D01*
X182968762Y-115603336D01*
X182990172Y-115513706D01*
X183026029Y-115324410D01*
X183012484Y-115217373D01*
X182901717Y-115169939D01*
X182835376Y-115274754D01*
X182822666Y-115412299D01*
X182784507Y-115623700D01*
X182705851Y-115752881D01*
X182637336Y-115786207D01*
X182613852Y-115712388D01*
X182628172Y-115503369D01*
X182632195Y-115466914D01*
X182646740Y-115202955D01*
X182622193Y-115087609D01*
X182572051Y-115108529D01*
X182509812Y-115253367D01*
X182448974Y-115509777D01*
X182426027Y-115655499D01*
X182348254Y-116227000D01*
X182264333Y-115592000D01*
X182225970Y-115285519D01*
X182200906Y-115053003D01*
X182193677Y-114937403D01*
X182194644Y-114932283D01*
X182278459Y-114931546D01*
X182481996Y-114954539D01*
X182481996Y-114954539D01*
G37*
X182481996Y-114954539D02*
X182713617Y-114988853D01*
X183388463Y-115166516D01*
X183969134Y-115473843D01*
X184380414Y-115817325D01*
X184631361Y-116092399D01*
X184753607Y-116292724D01*
X184743667Y-116410059D01*
X184643000Y-116438666D01*
X184558756Y-116439663D01*
X184528805Y-116470798D01*
X184552876Y-116574287D01*
X184630699Y-116792346D01*
X184640558Y-116819666D01*
X184764418Y-117395124D01*
X184720415Y-117970777D01*
X184508060Y-118549512D01*
X184284508Y-118921505D01*
X184153699Y-119133156D01*
X184125477Y-119255118D01*
X184173121Y-119314730D01*
X184199459Y-119385360D01*
X184093972Y-119498603D01*
X183913862Y-119625099D01*
X183690077Y-119778416D01*
X183526853Y-119905150D01*
X183480129Y-119951540D01*
X183423063Y-119986318D01*
X183416629Y-119963133D01*
X183365046Y-119942851D01*
X183306038Y-119979972D01*
X183150672Y-120055429D01*
X182921412Y-120115789D01*
X182903871Y-120118798D01*
X182632015Y-120165959D01*
X182395252Y-120210766D01*
X182214477Y-120225510D01*
X182126353Y-120201464D01*
X182013787Y-120159125D01*
X181805873Y-120123880D01*
X181765172Y-120119684D01*
X181524215Y-120073171D01*
X181438673Y-120037000D01*
X181552666Y-120037000D01*
X181595000Y-120079333D01*
X181637333Y-120037000D01*
X181595000Y-119994666D01*
X181552666Y-120037000D01*
X181438673Y-120037000D01*
X181345742Y-119997705D01*
X181333525Y-119988463D01*
X181209978Y-119924340D01*
X181162565Y-119933212D01*
X181073130Y-119919956D01*
X180961010Y-119839444D01*
X180776414Y-119686451D01*
X180579666Y-119540632D01*
X180429827Y-119401747D01*
X180437265Y-119298272D01*
X180439717Y-119295748D01*
X180459033Y-119173957D01*
X180344303Y-118969711D01*
X180322736Y-118940892D01*
X180145401Y-118669232D01*
X179994923Y-118377066D01*
X179988952Y-118362995D01*
X179901463Y-118026126D01*
X179864381Y-117603443D01*
X179866998Y-117527055D01*
X180167684Y-117527055D01*
X180182937Y-117881062D01*
X180247464Y-118206545D01*
X180318744Y-118386000D01*
X180508843Y-118699615D01*
X180697677Y-118916495D01*
X180861125Y-119011786D01*
X180921960Y-119007636D01*
X180964664Y-118941426D01*
X180904616Y-118796514D01*
X180785697Y-118619703D01*
X180523443Y-118161778D01*
X180411828Y-117701597D01*
X180417301Y-117625485D01*
X180706000Y-117625485D01*
X180764934Y-117948146D01*
X180919178Y-118300729D01*
X181110332Y-118576500D01*
X181260743Y-118708147D01*
X181375793Y-118699082D01*
X181407894Y-118671883D01*
X181395040Y-118578720D01*
X181298809Y-118410037D01*
X181253374Y-118347313D01*
X181041860Y-117967973D01*
X180992196Y-117578611D01*
X181069475Y-117223997D01*
X181143838Y-116963171D01*
X181136941Y-116823962D01*
X181046033Y-116777954D01*
X181026235Y-116777333D01*
X180939498Y-116851629D01*
X180844450Y-117038029D01*
X180761754Y-117281803D01*
X180712077Y-117528219D01*
X180706000Y-117625485D01*
X180417301Y-117625485D01*
X180447411Y-117206782D01*
X180586532Y-116745901D01*
X180582394Y-116628874D01*
X180513663Y-116608000D01*
X180374695Y-116684996D01*
X180267851Y-116889911D01*
X180197418Y-117183635D01*
X180167684Y-117527055D01*
X179866998Y-117527055D01*
X179879192Y-117171245D01*
X179947379Y-116805828D01*
X179958030Y-116773477D01*
X180012995Y-116568961D01*
X179987956Y-116473396D01*
X179958030Y-116457454D01*
X179874900Y-116398072D01*
X179888919Y-116290599D01*
X180010091Y-116112675D01*
X180219166Y-115873678D01*
X180472872Y-115640442D01*
X180777111Y-115425190D01*
X181102368Y-115240413D01*
X181419127Y-115098602D01*
X181697870Y-115012248D01*
X181909082Y-114993843D01*
X182023248Y-115055878D01*
X182035110Y-115105166D01*
X182045922Y-115241913D01*
X182071188Y-115487372D01*
X182097394Y-115719000D01*
X182122887Y-115996822D01*
X182114504Y-116121202D01*
X182071260Y-116104803D01*
X182067802Y-116100000D01*
X181988446Y-115914986D01*
X181977296Y-115835200D01*
X181915481Y-115668012D01*
X181847088Y-115590413D01*
X181759601Y-115424409D01*
X181768127Y-115326046D01*
X181765808Y-115195481D01*
X181685372Y-115168666D01*
X181591828Y-115171041D01*
X181561859Y-115210000D01*
X181587366Y-115333292D01*
X181631423Y-115486725D01*
X181662989Y-115692715D01*
X181615267Y-115760093D01*
X181508195Y-115677393D01*
X181448351Y-115591999D01*
X181329209Y-115468326D01*
X181204675Y-115420598D01*
X181132469Y-115466805D01*
X181129333Y-115492574D01*
X181193930Y-115613834D01*
X181346152Y-115761803D01*
X181523645Y-115884580D01*
X181655642Y-115930666D01*
X181784869Y-115996906D01*
X181933869Y-116160660D01*
X181963952Y-116205345D01*
X182071995Y-116385325D01*
X182089735Y-116474294D01*
X182018442Y-116523678D01*
X181972266Y-116541283D01*
X181837761Y-116629699D01*
X181806666Y-116694935D01*
X181754957Y-116748040D01*
X181722000Y-116735000D01*
X181661000Y-116620543D01*
X181637333Y-116433669D01*
X181611227Y-116257517D01*
X181548818Y-116184666D01*
X181434872Y-116129537D01*
X181270495Y-115994204D01*
X181243505Y-115967868D01*
X181089577Y-115839029D01*
X180985825Y-115797221D01*
X180975181Y-115802596D01*
X180967841Y-115912376D01*
X181070728Y-116062772D01*
X181248246Y-116208318D01*
X181327643Y-116252786D01*
X181489298Y-116369596D01*
X181552666Y-116485619D01*
X181493818Y-116589676D01*
X181350775Y-116599862D01*
X181173788Y-116525251D01*
X181024790Y-116390294D01*
X180871125Y-116245991D01*
X180768485Y-116257647D01*
X180765681Y-116360760D01*
X180869721Y-116502610D01*
X181036975Y-116644276D01*
X181223813Y-116746837D01*
X181348055Y-116774657D01*
X181528240Y-116803025D01*
X181575517Y-116897800D01*
X181497851Y-117084830D01*
X181462206Y-117145167D01*
X181351294Y-117380290D01*
X181299484Y-117594928D01*
X181298983Y-117610936D01*
X181346399Y-117837862D01*
X181463420Y-118083113D01*
X181611278Y-118276776D01*
X181703993Y-118341286D01*
X181857748Y-118363926D01*
X181892318Y-118287252D01*
X181801878Y-118137739D01*
X181758866Y-118091896D01*
X181584769Y-117818073D01*
X181569572Y-117527029D01*
X181713062Y-117253548D01*
X181764333Y-117200666D01*
X181907794Y-117077826D01*
X181984773Y-117034817D01*
X181987880Y-117037741D01*
X181998037Y-117134862D01*
X182012335Y-117350482D01*
X182024810Y-117581666D01*
X182018614Y-118064788D01*
X181953190Y-118457400D01*
X181835163Y-118733404D01*
X181701638Y-118855391D01*
X181515379Y-118995961D01*
X181432592Y-119105666D01*
X181328252Y-119264351D01*
X181266652Y-119329033D01*
X181236187Y-119430130D01*
X181300753Y-119538966D01*
X181381602Y-119571333D01*
X181449098Y-119498499D01*
X181509008Y-119323365D01*
X181509048Y-119323183D01*
X181587839Y-119115753D01*
X181702864Y-118960920D01*
X181816729Y-118901364D01*
X181861629Y-118920740D01*
X181914027Y-119072166D01*
X181896182Y-119286020D01*
X181821198Y-119477330D01*
X181766438Y-119537930D01*
X181672267Y-119658851D01*
X181676185Y-119735033D01*
X181783108Y-119819911D01*
X181874600Y-119785815D01*
X181891891Y-119719500D01*
X181937074Y-119583217D01*
X182047042Y-119388246D01*
X182066152Y-119359666D01*
X182239856Y-119105666D01*
X182213761Y-119564006D01*
X182214746Y-119877947D01*
X182263415Y-120036888D01*
X182293500Y-120057894D01*
X182357935Y-120024784D01*
X182393807Y-119858802D01*
X182405313Y-119599555D01*
X182411294Y-119105666D01*
X182571175Y-119465500D01*
X182683333Y-119678983D01*
X182784475Y-119807960D01*
X182819194Y-119825333D01*
X182900957Y-119768886D01*
X182865501Y-119611755D01*
X182746082Y-119413350D01*
X182643583Y-119235438D01*
X182650973Y-119106962D01*
X182691339Y-119041235D01*
X182782470Y-118942379D01*
X182865323Y-118975339D01*
X182928516Y-119042954D01*
X183048248Y-119232937D01*
X183089092Y-119352650D01*
X183154133Y-119493274D01*
X183249336Y-119553490D01*
X183320706Y-119511229D01*
X183330666Y-119451388D01*
X183290042Y-119334216D01*
X183251888Y-119317333D01*
X183180099Y-119245343D01*
X183146055Y-119126833D01*
X183052076Y-118944075D01*
X183028514Y-118926343D01*
X183584666Y-118926343D01*
X183644888Y-118981439D01*
X183781269Y-118961320D01*
X183927386Y-118882116D01*
X183979406Y-118830500D01*
X184266544Y-118344231D01*
X184415833Y-117807765D01*
X184419877Y-117262098D01*
X184329658Y-116889177D01*
X184232622Y-116707550D01*
X184125816Y-116612588D01*
X184045887Y-116616002D01*
X184029480Y-116729500D01*
X184045858Y-116798500D01*
X184162468Y-117385826D01*
X184144104Y-117912847D01*
X183992986Y-118360765D01*
X183834490Y-118589487D01*
X183683584Y-118772055D01*
X183594700Y-118900262D01*
X183584666Y-118926343D01*
X183028514Y-118926343D01*
X182933711Y-118855000D01*
X182767889Y-118739133D01*
X182700823Y-118643333D01*
X182687033Y-118608461D01*
X183104476Y-118608461D01*
X183119000Y-118640000D01*
X183227205Y-118718958D01*
X183380303Y-118656299D01*
X183546468Y-118500536D01*
X183787816Y-118121425D01*
X183878449Y-117679880D01*
X183818739Y-117218828D01*
X183721613Y-116961843D01*
X183617370Y-116830255D01*
X183581833Y-116819666D01*
X183489791Y-116885290D01*
X183487751Y-116989000D01*
X183554790Y-117441009D01*
X183567251Y-117772804D01*
X183522393Y-118025372D01*
X183417472Y-118239704D01*
X183402583Y-118262064D01*
X183263930Y-118443845D01*
X183156885Y-118546397D01*
X183135169Y-118554754D01*
X183104476Y-118608461D01*
X182687033Y-118608461D01*
X182621407Y-118442519D01*
X182597176Y-118386000D01*
X182574698Y-118304471D01*
X182650200Y-118349139D01*
X182667541Y-118363285D01*
X182773976Y-118410859D01*
X182895020Y-118350945D01*
X183013937Y-118236285D01*
X183238488Y-117923095D01*
X183299343Y-117615662D01*
X183199887Y-117292220D01*
X183169288Y-117237469D01*
X183051303Y-116987568D01*
X183059571Y-116839672D01*
X183196720Y-116780068D01*
X183257509Y-116777333D01*
X183406499Y-116729518D01*
X183580471Y-116612045D01*
X183738572Y-116463874D01*
X183839948Y-116323963D01*
X183843745Y-116231272D01*
X183836204Y-116225478D01*
X183729543Y-116246766D01*
X183588839Y-116372310D01*
X183575122Y-116389236D01*
X183398289Y-116550031D01*
X183228893Y-116606163D01*
X183108933Y-116553467D01*
X183076666Y-116438666D01*
X183137380Y-116295925D01*
X183232877Y-116269333D01*
X183392379Y-116213405D01*
X183558556Y-116084868D01*
X183661298Y-115942597D01*
X183669333Y-115902833D01*
X183600394Y-115852327D01*
X183542333Y-115846000D01*
X183429698Y-115894046D01*
X183415333Y-115935070D01*
X183343951Y-116021707D01*
X183171182Y-116109186D01*
X183161333Y-116112686D01*
X182986779Y-116200527D01*
X182913019Y-116341491D01*
X182897511Y-116510449D01*
X182882865Y-116670796D01*
X182858136Y-116697263D01*
X182848970Y-116671500D01*
X182743727Y-116549519D01*
X182641236Y-116523333D01*
X182514245Y-116480560D01*
X182499278Y-116333742D01*
X182592026Y-116167231D01*
X182832115Y-116001875D01*
X182931363Y-115952205D01*
X183221366Y-115784320D01*
X183385519Y-115622039D01*
X183408033Y-115483142D01*
X183381512Y-115445289D01*
X183300213Y-115464345D01*
X183196918Y-115575941D01*
X183056892Y-115732609D01*
X182974999Y-115739982D01*
X182968762Y-115603336D01*
X182990172Y-115513706D01*
X183026029Y-115324410D01*
X183012484Y-115217373D01*
X182901717Y-115169939D01*
X182835376Y-115274754D01*
X182822666Y-115412299D01*
X182784507Y-115623700D01*
X182705851Y-115752881D01*
X182637336Y-115786207D01*
X182613852Y-115712388D01*
X182628172Y-115503369D01*
X182632195Y-115466914D01*
X182646740Y-115202955D01*
X182622193Y-115087609D01*
X182572051Y-115108529D01*
X182509812Y-115253367D01*
X182448974Y-115509777D01*
X182426027Y-115655499D01*
X182348254Y-116227000D01*
X182264333Y-115592000D01*
X182225970Y-115285519D01*
X182200906Y-115053003D01*
X182193677Y-114937403D01*
X182194644Y-114932283D01*
X182278459Y-114931546D01*
X182481996Y-114954539D01*
G36*
X180960000Y-119867666D02*
X180917666Y-119910000D01*
X180875333Y-119867666D01*
X180917666Y-119825333D01*
X180960000Y-119867666D01*
X180960000Y-119867666D01*
G37*
X180960000Y-119867666D02*
X180917666Y-119910000D01*
X180875333Y-119867666D01*
X180917666Y-119825333D01*
X180960000Y-119867666D01*
G36*
X182201777Y-118329555D02*
X182211910Y-118430035D01*
X182201777Y-118442444D01*
X182151443Y-118430822D01*
X182145333Y-118386000D01*
X182176311Y-118316309D01*
X182201777Y-118329555D01*
X182201777Y-118329555D01*
G37*
X182201777Y-118329555D02*
X182211910Y-118430035D01*
X182201777Y-118442444D01*
X182151443Y-118430822D01*
X182145333Y-118386000D01*
X182176311Y-118316309D01*
X182201777Y-118329555D01*
G36*
X182812418Y-117098840D02*
X182927568Y-117251240D01*
X183025765Y-117456132D01*
X183075347Y-117658334D01*
X183076666Y-117689703D01*
X183022451Y-117836622D01*
X182894618Y-118014837D01*
X182745382Y-118162081D01*
X182634767Y-118216666D01*
X182611411Y-118139384D01*
X182598202Y-117936765D01*
X182597994Y-117652647D01*
X182598005Y-117652184D01*
X182620651Y-117318423D01*
X182667236Y-117111012D01*
X182711980Y-117054117D01*
X182812418Y-117098840D01*
X182812418Y-117098840D01*
G37*
X182812418Y-117098840D02*
X182927568Y-117251240D01*
X183025765Y-117456132D01*
X183075347Y-117658334D01*
X183076666Y-117689703D01*
X183022451Y-117836622D01*
X182894618Y-118014837D01*
X182745382Y-118162081D01*
X182634767Y-118216666D01*
X182611411Y-118139384D01*
X182598202Y-117936765D01*
X182597994Y-117652647D01*
X182598005Y-117652184D01*
X182620651Y-117318423D01*
X182667236Y-117111012D01*
X182711980Y-117054117D01*
X182812418Y-117098840D01*
G36*
X180536666Y-115295666D02*
X180494333Y-115338000D01*
X180452000Y-115295666D01*
X180494333Y-115253333D01*
X180536666Y-115295666D01*
X180536666Y-115295666D01*
G37*
X180536666Y-115295666D02*
X180494333Y-115338000D01*
X180452000Y-115295666D01*
X180494333Y-115253333D01*
X180536666Y-115295666D01*
G36*
X183838666Y-115126333D02*
X183796333Y-115168666D01*
X183754000Y-115126333D01*
X183796333Y-115084000D01*
X183838666Y-115126333D01*
X183838666Y-115126333D01*
G37*
X183838666Y-115126333D02*
X183796333Y-115168666D01*
X183754000Y-115126333D01*
X183796333Y-115084000D01*
X183838666Y-115126333D01*
G36*
X183669333Y-115041666D02*
X183627000Y-115084000D01*
X183584666Y-115041666D01*
X183627000Y-114999333D01*
X183669333Y-115041666D01*
X183669333Y-115041666D01*
G37*
X183669333Y-115041666D02*
X183627000Y-115084000D01*
X183584666Y-115041666D01*
X183627000Y-114999333D01*
X183669333Y-115041666D01*
G36*
X183500000Y-114957000D02*
X183457666Y-114999333D01*
X183415333Y-114957000D01*
X183457666Y-114914666D01*
X183500000Y-114957000D01*
X183500000Y-114957000D01*
G37*
X183500000Y-114957000D02*
X183457666Y-114999333D01*
X183415333Y-114957000D01*
X183457666Y-114914666D01*
X183500000Y-114957000D01*
D12*
X180543334Y-124667143D02*
X180495715Y-124714762D01*
X180352858Y-124762381D01*
X180257620Y-124762381D01*
X180114762Y-124714762D01*
X180019524Y-124619524D01*
X179971905Y-124524286D01*
X179924286Y-124333810D01*
X179924286Y-124190952D01*
X179971905Y-124000476D01*
X180019524Y-123905238D01*
X180114762Y-123810000D01*
X180257620Y-123762381D01*
X180352858Y-123762381D01*
X180495715Y-123810000D01*
X180543334Y-123857619D01*
X180924286Y-123857619D02*
X180971905Y-123810000D01*
X181067143Y-123762381D01*
X181305239Y-123762381D01*
X181400477Y-123810000D01*
X181448096Y-123857619D01*
X181495715Y-123952857D01*
X181495715Y-124048095D01*
X181448096Y-124190952D01*
X180876667Y-124762381D01*
X181495715Y-124762381D01*
X177153334Y-130472381D02*
X176820000Y-129996190D01*
X176581905Y-130472381D02*
X176581905Y-129472381D01*
X176962858Y-129472381D01*
X177058096Y-129520000D01*
X177105715Y-129567619D01*
X177153334Y-129662857D01*
X177153334Y-129805714D01*
X177105715Y-129900952D01*
X177058096Y-129948571D01*
X176962858Y-129996190D01*
X176581905Y-129996190D01*
X177534286Y-129567619D02*
X177581905Y-129520000D01*
X177677143Y-129472381D01*
X177915239Y-129472381D01*
X178010477Y-129520000D01*
X178058096Y-129567619D01*
X178105715Y-129662857D01*
X178105715Y-129758095D01*
X178058096Y-129900952D01*
X177486667Y-130472381D01*
X178105715Y-130472381D01*
X182418095Y-106682381D02*
X182418095Y-107491905D01*
X182465714Y-107587143D01*
X182513333Y-107634762D01*
X182608571Y-107682381D01*
X182799048Y-107682381D01*
X182894286Y-107634762D01*
X182941905Y-107587143D01*
X182989524Y-107491905D01*
X182989524Y-106682381D01*
X183370476Y-106682381D02*
X183989524Y-106682381D01*
X183656190Y-107063333D01*
X183799048Y-107063333D01*
X183894286Y-107110952D01*
X183941905Y-107158571D01*
X183989524Y-107253810D01*
X183989524Y-107491905D01*
X183941905Y-107587143D01*
X183894286Y-107634762D01*
X183799048Y-107682381D01*
X183513333Y-107682381D01*
X183418095Y-107634762D01*
X183370476Y-107587143D01*
X186402381Y-127958095D02*
X185402381Y-127958095D01*
X185402381Y-127720000D01*
X185450000Y-127577142D01*
X185545238Y-127481904D01*
X185640476Y-127434285D01*
X185830952Y-127386666D01*
X185973810Y-127386666D01*
X186164286Y-127434285D01*
X186259524Y-127481904D01*
X186354762Y-127577142D01*
X186402381Y-127720000D01*
X186402381Y-127958095D01*
X186402381Y-126434285D02*
X186402381Y-127005714D01*
X186402381Y-126720000D02*
X185402381Y-126720000D01*
X185545238Y-126815238D01*
X185640476Y-126910476D01*
X185688095Y-127005714D01*
X173593334Y-124647143D02*
X173545715Y-124694762D01*
X173402858Y-124742381D01*
X173307620Y-124742381D01*
X173164762Y-124694762D01*
X173069524Y-124599524D01*
X173021905Y-124504286D01*
X172974286Y-124313810D01*
X172974286Y-124170952D01*
X173021905Y-123980476D01*
X173069524Y-123885238D01*
X173164762Y-123790000D01*
X173307620Y-123742381D01*
X173402858Y-123742381D01*
X173545715Y-123790000D01*
X173593334Y-123837619D01*
X174545715Y-124742381D02*
X173974286Y-124742381D01*
X174260000Y-124742381D02*
X174260000Y-123742381D01*
X174164762Y-123885238D01*
X174069524Y-123980476D01*
X173974286Y-124028095D01*
X180783334Y-130112381D02*
X180450000Y-129636190D01*
X180211905Y-130112381D02*
X180211905Y-129112381D01*
X180592858Y-129112381D01*
X180688096Y-129160000D01*
X180735715Y-129207619D01*
X180783334Y-129302857D01*
X180783334Y-129445714D01*
X180735715Y-129540952D01*
X180688096Y-129588571D01*
X180592858Y-129636190D01*
X180211905Y-129636190D01*
X181735715Y-130112381D02*
X181164286Y-130112381D01*
X181450000Y-130112381D02*
X181450000Y-129112381D01*
X181354762Y-129255238D01*
X181259524Y-129350476D01*
X181164286Y-129398095D01*
D14*
X172711906Y-130726190D02*
X172545239Y-130488095D01*
X172426192Y-130726190D02*
X172426192Y-130226190D01*
X172616668Y-130226190D01*
X172664287Y-130250000D01*
X172688096Y-130273810D01*
X172711906Y-130321429D01*
X172711906Y-130392857D01*
X172688096Y-130440476D01*
X172664287Y-130464286D01*
X172616668Y-130488095D01*
X172426192Y-130488095D01*
X172902382Y-130702381D02*
X172973811Y-130726190D01*
X173092858Y-130726190D01*
X173140477Y-130702381D01*
X173164287Y-130678571D01*
X173188096Y-130630952D01*
X173188096Y-130583333D01*
X173164287Y-130535714D01*
X173140477Y-130511905D01*
X173092858Y-130488095D01*
X172997620Y-130464286D01*
X172950001Y-130440476D01*
X172926192Y-130416667D01*
X172902382Y-130369048D01*
X172902382Y-130321429D01*
X172926192Y-130273810D01*
X172950001Y-130250000D01*
X172997620Y-130226190D01*
X173116668Y-130226190D01*
X173188096Y-130250000D01*
X173330953Y-130226190D02*
X173616667Y-130226190D01*
X173473810Y-130726190D02*
X173473810Y-130226190D01*
X173664286Y-130773810D02*
X174045238Y-130773810D01*
X174140476Y-130702381D02*
X174211905Y-130726190D01*
X174330952Y-130726190D01*
X174378571Y-130702381D01*
X174402381Y-130678571D01*
X174426190Y-130630952D01*
X174426190Y-130583333D01*
X174402381Y-130535714D01*
X174378571Y-130511905D01*
X174330952Y-130488095D01*
X174235714Y-130464286D01*
X174188095Y-130440476D01*
X174164286Y-130416667D01*
X174140476Y-130369048D01*
X174140476Y-130321429D01*
X174164286Y-130273810D01*
X174188095Y-130250000D01*
X174235714Y-130226190D01*
X174354762Y-130226190D01*
X174426190Y-130250000D01*
X174592857Y-130226190D02*
X174711904Y-130726190D01*
X174807142Y-130369048D01*
X174902380Y-130726190D01*
X175021428Y-130226190D01*
D12*
X187198095Y-100262381D02*
X187198095Y-101071905D01*
X187245714Y-101167143D01*
X187293333Y-101214762D01*
X187388571Y-101262381D01*
X187579048Y-101262381D01*
X187674286Y-101214762D01*
X187721905Y-101167143D01*
X187769524Y-101071905D01*
X187769524Y-100262381D01*
X188769524Y-101262381D02*
X188198095Y-101262381D01*
X188483809Y-101262381D02*
X188483809Y-100262381D01*
X188388571Y-100405238D01*
X188293333Y-100500476D01*
X188198095Y-100548095D01*
X183865238Y-105152381D02*
X184103333Y-106152381D01*
X184293810Y-105438095D01*
X184484286Y-106152381D01*
X184722381Y-105152381D01*
X185627143Y-106152381D02*
X185055714Y-106152381D01*
X185341428Y-106152381D02*
X185341428Y-105152381D01*
X185246190Y-105295238D01*
X185150952Y-105390476D01*
X185055714Y-105438095D01*
M02*
