G04 #@! TF.FileFunction,Legend,Bot*
%FSLAX46Y46*%
G04 Gerber Fmt 4.6, Leading zero omitted, Abs format (unit mm)*
G04 Created by KiCad (PCBNEW 4.0.4-stable) date 01/02/17 19:22:38*
%MOMM*%
%LPD*%
G01*
G04 APERTURE LIST*
%ADD10C,0.100000*%
%ADD11C,0.200000*%
%ADD12C,0.300000*%
%ADD13C,0.150000*%
G04 APERTURE END LIST*
D10*
D11*
X174645287Y-122320000D02*
G75*
G03X174645287Y-122320000I-305287J0D01*
G01*
D12*
X185538571Y-110181430D02*
X184824286Y-109681430D01*
X185538571Y-109324287D02*
X184038571Y-109324287D01*
X184038571Y-109895715D01*
X184110000Y-110038573D01*
X184181429Y-110110001D01*
X184324286Y-110181430D01*
X184538571Y-110181430D01*
X184681429Y-110110001D01*
X184752857Y-110038573D01*
X184824286Y-109895715D01*
X184824286Y-109324287D01*
X184752857Y-111324287D02*
X184752857Y-110824287D01*
X185538571Y-110824287D02*
X184038571Y-110824287D01*
X184038571Y-111538573D01*
X185538571Y-112110001D02*
X184038571Y-112110001D01*
X185110000Y-112610001D01*
X184038571Y-113110001D01*
X185538571Y-113110001D01*
X185538571Y-113895715D02*
X185538571Y-114181430D01*
X185467143Y-114324287D01*
X185395714Y-114395715D01*
X185181429Y-114538573D01*
X184895714Y-114610001D01*
X184324286Y-114610001D01*
X184181429Y-114538573D01*
X184110000Y-114467144D01*
X184038571Y-114324287D01*
X184038571Y-114038573D01*
X184110000Y-113895715D01*
X184181429Y-113824287D01*
X184324286Y-113752858D01*
X184681429Y-113752858D01*
X184824286Y-113824287D01*
X184895714Y-113895715D01*
X184967143Y-114038573D01*
X184967143Y-114324287D01*
X184895714Y-114467144D01*
X184824286Y-114538573D01*
X184681429Y-114610001D01*
X184038571Y-115895715D02*
X184038571Y-115610001D01*
X184110000Y-115467144D01*
X184181429Y-115395715D01*
X184395714Y-115252858D01*
X184681429Y-115181429D01*
X185252857Y-115181429D01*
X185395714Y-115252858D01*
X185467143Y-115324286D01*
X185538571Y-115467144D01*
X185538571Y-115752858D01*
X185467143Y-115895715D01*
X185395714Y-115967144D01*
X185252857Y-116038572D01*
X184895714Y-116038572D01*
X184752857Y-115967144D01*
X184681429Y-115895715D01*
X184610000Y-115752858D01*
X184610000Y-115467144D01*
X184681429Y-115324286D01*
X184752857Y-115252858D01*
X184895714Y-115181429D01*
X183967143Y-117752857D02*
X185895714Y-116467143D01*
X185538571Y-118324286D02*
X185538571Y-118610001D01*
X185467143Y-118752858D01*
X185395714Y-118824286D01*
X185181429Y-118967144D01*
X184895714Y-119038572D01*
X184324286Y-119038572D01*
X184181429Y-118967144D01*
X184110000Y-118895715D01*
X184038571Y-118752858D01*
X184038571Y-118467144D01*
X184110000Y-118324286D01*
X184181429Y-118252858D01*
X184324286Y-118181429D01*
X184681429Y-118181429D01*
X184824286Y-118252858D01*
X184895714Y-118324286D01*
X184967143Y-118467144D01*
X184967143Y-118752858D01*
X184895714Y-118895715D01*
X184824286Y-118967144D01*
X184681429Y-119038572D01*
X184181429Y-119610000D02*
X184110000Y-119681429D01*
X184038571Y-119824286D01*
X184038571Y-120181429D01*
X184110000Y-120324286D01*
X184181429Y-120395715D01*
X184324286Y-120467143D01*
X184467143Y-120467143D01*
X184681429Y-120395715D01*
X185538571Y-119538572D01*
X185538571Y-120467143D01*
D13*
X175300000Y-122200000D02*
X175300000Y-106200000D01*
X175300000Y-106200000D02*
X191300000Y-106200000D01*
X191300000Y-106200000D02*
X191300000Y-122200000D01*
X191300000Y-122200000D02*
X175300000Y-122200000D01*
X183941905Y-106682381D02*
X183941905Y-107491905D01*
X183894286Y-107587143D01*
X183846667Y-107634762D01*
X183751429Y-107682381D01*
X183560952Y-107682381D01*
X183465714Y-107634762D01*
X183418095Y-107587143D01*
X183370476Y-107491905D01*
X183370476Y-106682381D01*
X182989524Y-106682381D02*
X182370476Y-106682381D01*
X182703810Y-107063333D01*
X182560952Y-107063333D01*
X182465714Y-107110952D01*
X182418095Y-107158571D01*
X182370476Y-107253810D01*
X182370476Y-107491905D01*
X182418095Y-107587143D01*
X182465714Y-107634762D01*
X182560952Y-107682381D01*
X182846667Y-107682381D01*
X182941905Y-107634762D01*
X182989524Y-107587143D01*
X188095238Y-104852381D02*
X187428571Y-105852381D01*
X187428571Y-104852381D02*
X188095238Y-105852381D01*
X186714285Y-105328571D02*
X186571428Y-105376190D01*
X186523809Y-105423810D01*
X186476190Y-105519048D01*
X186476190Y-105661905D01*
X186523809Y-105757143D01*
X186571428Y-105804762D01*
X186666666Y-105852381D01*
X187047619Y-105852381D01*
X187047619Y-104852381D01*
X186714285Y-104852381D01*
X186619047Y-104900000D01*
X186571428Y-104947619D01*
X186523809Y-105042857D01*
X186523809Y-105138095D01*
X186571428Y-105233333D01*
X186619047Y-105280952D01*
X186714285Y-105328571D01*
X187047619Y-105328571D01*
X186047619Y-105328571D02*
X185714285Y-105328571D01*
X185571428Y-105852381D02*
X186047619Y-105852381D01*
X186047619Y-104852381D01*
X185571428Y-104852381D01*
X185142857Y-105328571D02*
X184809523Y-105328571D01*
X184666666Y-105852381D02*
X185142857Y-105852381D01*
X185142857Y-104852381D01*
X184666666Y-104852381D01*
X184476190Y-105947619D02*
X183714285Y-105947619D01*
X183476190Y-105852381D02*
X183476190Y-104852381D01*
X183142856Y-105566667D01*
X182809523Y-104852381D01*
X182809523Y-105852381D01*
X182142857Y-104852381D02*
X181952380Y-104852381D01*
X181857142Y-104900000D01*
X181761904Y-104995238D01*
X181714285Y-105185714D01*
X181714285Y-105519048D01*
X181761904Y-105709524D01*
X181857142Y-105804762D01*
X181952380Y-105852381D01*
X182142857Y-105852381D01*
X182238095Y-105804762D01*
X182333333Y-105709524D01*
X182380952Y-105519048D01*
X182380952Y-105185714D01*
X182333333Y-104995238D01*
X182238095Y-104900000D01*
X182142857Y-104852381D01*
X181285714Y-105852381D02*
X181285714Y-104852381D01*
X181047619Y-104852381D01*
X180904761Y-104900000D01*
X180809523Y-104995238D01*
X180761904Y-105090476D01*
X180714285Y-105280952D01*
X180714285Y-105423810D01*
X180761904Y-105614286D01*
X180809523Y-105709524D01*
X180904761Y-105804762D01*
X181047619Y-105852381D01*
X181285714Y-105852381D01*
X180285714Y-104852381D02*
X180285714Y-105661905D01*
X180238095Y-105757143D01*
X180190476Y-105804762D01*
X180095238Y-105852381D01*
X179904761Y-105852381D01*
X179809523Y-105804762D01*
X179761904Y-105757143D01*
X179714285Y-105661905D01*
X179714285Y-104852381D01*
X178761904Y-105852381D02*
X179238095Y-105852381D01*
X179238095Y-104852381D01*
X178428571Y-105328571D02*
X178095237Y-105328571D01*
X177952380Y-105852381D02*
X178428571Y-105852381D01*
X178428571Y-104852381D01*
X177952380Y-104852381D01*
X183291905Y-114462381D02*
X183291905Y-115271905D01*
X183244286Y-115367143D01*
X183196667Y-115414762D01*
X183101429Y-115462381D01*
X182910952Y-115462381D01*
X182815714Y-115414762D01*
X182768095Y-115367143D01*
X182720476Y-115271905D01*
X182720476Y-114462381D01*
X182291905Y-114557619D02*
X182244286Y-114510000D01*
X182149048Y-114462381D01*
X181910952Y-114462381D01*
X181815714Y-114510000D01*
X181768095Y-114557619D01*
X181720476Y-114652857D01*
X181720476Y-114748095D01*
X181768095Y-114890952D01*
X182339524Y-115462381D01*
X181720476Y-115462381D01*
M02*
