G04 #@! TF.FileFunction,Other,Fab,Top*
%FSLAX46Y46*%
G04 Gerber Fmt 4.6, Leading zero omitted, Abs format (unit mm)*
G04 Created by KiCad (PCBNEW 4.0.4-stable) date 01/28/17 20:23:09*
%MOMM*%
%LPD*%
G01*
G04 APERTURE LIST*
%ADD10C,0.100000*%
%ADD11C,0.150000*%
%ADD12C,0.090000*%
G04 APERTURE END LIST*
D10*
D11*
X183220000Y-125305000D02*
X183220000Y-126555000D01*
X181220000Y-125305000D02*
X183220000Y-125305000D01*
X181220000Y-126555000D02*
X181220000Y-125305000D01*
X183220000Y-126555000D02*
X181220000Y-126555000D01*
D10*
X178105000Y-126040000D02*
X179355000Y-126040000D01*
X178105000Y-128040000D02*
X178105000Y-126040000D01*
X179355000Y-128040000D02*
X178105000Y-128040000D01*
X179355000Y-126040000D02*
X179355000Y-128040000D01*
D11*
X185090000Y-127380000D02*
X185690000Y-127380000D01*
X185390000Y-127280000D02*
X185090000Y-126980000D01*
X185690000Y-126980000D02*
X185390000Y-127280000D01*
X185090000Y-126980000D02*
X185690000Y-126980000D01*
X184790000Y-125980000D02*
X184790000Y-127980000D01*
X185990000Y-125980000D02*
X184790000Y-125980000D01*
X185990000Y-127980000D02*
X185990000Y-125980000D01*
X184790000Y-127980000D02*
X185990000Y-127980000D01*
X176380000Y-124765000D02*
X176380000Y-126015000D01*
X174380000Y-124765000D02*
X176380000Y-124765000D01*
X174380000Y-126015000D02*
X174380000Y-124765000D01*
X176380000Y-126015000D02*
X174380000Y-126015000D01*
D10*
X183150000Y-127375000D02*
X183150000Y-128625000D01*
X181150000Y-127375000D02*
X183150000Y-127375000D01*
X181150000Y-128625000D02*
X181150000Y-127375000D01*
X183150000Y-128625000D02*
X181150000Y-128625000D01*
D11*
X172930000Y-127740000D02*
X175930000Y-127740000D01*
X175930000Y-127740000D02*
X175930000Y-130240000D01*
X175930000Y-130240000D02*
X172930000Y-130240000D01*
X172930000Y-130240000D02*
X172930000Y-127740000D01*
D12*
X181358573Y-124386190D02*
X181406192Y-124386190D01*
X181453811Y-124410000D01*
X181477620Y-124433810D01*
X181501430Y-124481429D01*
X181525239Y-124576667D01*
X181525239Y-124695714D01*
X181501430Y-124790952D01*
X181477620Y-124838571D01*
X181453811Y-124862381D01*
X181406192Y-124886190D01*
X181358573Y-124886190D01*
X181310954Y-124862381D01*
X181287144Y-124838571D01*
X181263335Y-124790952D01*
X181239525Y-124695714D01*
X181239525Y-124576667D01*
X181263335Y-124481429D01*
X181287144Y-124433810D01*
X181310954Y-124410000D01*
X181358573Y-124386190D01*
X181739525Y-124838571D02*
X181763334Y-124862381D01*
X181739525Y-124886190D01*
X181715715Y-124862381D01*
X181739525Y-124838571D01*
X181739525Y-124886190D01*
X182239524Y-124886190D02*
X181953810Y-124886190D01*
X182096667Y-124886190D02*
X182096667Y-124386190D01*
X182049048Y-124457619D01*
X182001429Y-124505238D01*
X181953810Y-124529048D01*
X182668095Y-124552857D02*
X182668095Y-124886190D01*
X182453810Y-124552857D02*
X182453810Y-124814762D01*
X182477619Y-124862381D01*
X182525238Y-124886190D01*
X182596667Y-124886190D01*
X182644286Y-124862381D01*
X182668095Y-124838571D01*
X183072857Y-124624286D02*
X182906191Y-124624286D01*
X182906191Y-124886190D02*
X182906191Y-124386190D01*
X183144286Y-124386190D01*
X178976190Y-124467143D02*
X178976190Y-124752857D01*
X178976190Y-124610000D02*
X178476190Y-124610000D01*
X178547619Y-124657619D01*
X178595238Y-124705238D01*
X178619048Y-124752857D01*
X178976190Y-124252857D02*
X178476190Y-124252857D01*
X178976190Y-123967143D02*
X178690476Y-124181429D01*
X178476190Y-123967143D02*
X178761905Y-124252857D01*
X174714286Y-124376190D02*
X174428572Y-124376190D01*
X174571429Y-124376190D02*
X174571429Y-123876190D01*
X174523810Y-123947619D01*
X174476191Y-123995238D01*
X174428572Y-124019048D01*
X175166667Y-123876190D02*
X174928572Y-123876190D01*
X174904762Y-124114286D01*
X174928572Y-124090476D01*
X174976191Y-124066667D01*
X175095238Y-124066667D01*
X175142857Y-124090476D01*
X175166667Y-124114286D01*
X175190476Y-124161905D01*
X175190476Y-124280952D01*
X175166667Y-124328571D01*
X175142857Y-124352381D01*
X175095238Y-124376190D01*
X174976191Y-124376190D01*
X174928572Y-124352381D01*
X174904762Y-124328571D01*
X175404762Y-124042857D02*
X175404762Y-124376190D01*
X175404762Y-124090476D02*
X175428571Y-124066667D01*
X175476190Y-124042857D01*
X175547619Y-124042857D01*
X175595238Y-124066667D01*
X175619047Y-124114286D01*
X175619047Y-124376190D01*
X176023809Y-124114286D02*
X175857143Y-124114286D01*
X175857143Y-124376190D02*
X175857143Y-123876190D01*
X176095238Y-123876190D01*
X183542857Y-129716190D02*
X183257143Y-129716190D01*
X183400000Y-129716190D02*
X183400000Y-129216190D01*
X183352381Y-129287619D01*
X183304762Y-129335238D01*
X183257143Y-129359048D01*
X183757143Y-129716190D02*
X183757143Y-129216190D01*
X184042857Y-129716190D02*
X183828571Y-129430476D01*
X184042857Y-129216190D02*
X183757143Y-129501905D01*
D11*
X179906190Y-93518571D02*
X180239524Y-93518571D01*
X180382381Y-94042381D02*
X179906190Y-94042381D01*
X179906190Y-93042381D01*
X180382381Y-93042381D01*
X180810952Y-94042381D02*
X180810952Y-93042381D01*
X181049047Y-93042381D01*
X181191905Y-93090000D01*
X181287143Y-93185238D01*
X181334762Y-93280476D01*
X181382381Y-93470952D01*
X181382381Y-93613810D01*
X181334762Y-93804286D01*
X181287143Y-93899524D01*
X181191905Y-93994762D01*
X181049047Y-94042381D01*
X180810952Y-94042381D01*
X182334762Y-93090000D02*
X182239524Y-93042381D01*
X182096667Y-93042381D01*
X181953809Y-93090000D01*
X181858571Y-93185238D01*
X181810952Y-93280476D01*
X181763333Y-93470952D01*
X181763333Y-93613810D01*
X181810952Y-93804286D01*
X181858571Y-93899524D01*
X181953809Y-93994762D01*
X182096667Y-94042381D01*
X182191905Y-94042381D01*
X182334762Y-93994762D01*
X182382381Y-93947143D01*
X182382381Y-93613810D01*
X182191905Y-93613810D01*
X182810952Y-93518571D02*
X183144286Y-93518571D01*
X183287143Y-94042381D02*
X182810952Y-94042381D01*
X182810952Y-93042381D01*
X183287143Y-93042381D01*
X183477619Y-94137619D02*
X184239524Y-94137619D01*
X184430000Y-93994762D02*
X184572857Y-94042381D01*
X184810953Y-94042381D01*
X184906191Y-93994762D01*
X184953810Y-93947143D01*
X185001429Y-93851905D01*
X185001429Y-93756667D01*
X184953810Y-93661429D01*
X184906191Y-93613810D01*
X184810953Y-93566190D01*
X184620476Y-93518571D01*
X184525238Y-93470952D01*
X184477619Y-93423333D01*
X184430000Y-93328095D01*
X184430000Y-93232857D01*
X184477619Y-93137619D01*
X184525238Y-93090000D01*
X184620476Y-93042381D01*
X184858572Y-93042381D01*
X185001429Y-93090000D01*
X185430000Y-94042381D02*
X185430000Y-93042381D01*
X185763334Y-93756667D01*
X186096667Y-93042381D01*
X186096667Y-94042381D01*
X186525238Y-93756667D02*
X187001429Y-93756667D01*
X186430000Y-94042381D02*
X186763333Y-93042381D01*
X187096667Y-94042381D01*
X184666667Y-103372381D02*
X184904762Y-104372381D01*
X185095239Y-103658095D01*
X185285715Y-104372381D01*
X185523810Y-103372381D01*
X185904762Y-104372381D02*
X185904762Y-103372381D01*
X186952381Y-104372381D02*
X186619047Y-103896190D01*
X186380952Y-104372381D02*
X186380952Y-103372381D01*
X186761905Y-103372381D01*
X186857143Y-103420000D01*
X186904762Y-103467619D01*
X186952381Y-103562857D01*
X186952381Y-103705714D01*
X186904762Y-103800952D01*
X186857143Y-103848571D01*
X186761905Y-103896190D01*
X186380952Y-103896190D01*
X187380952Y-103848571D02*
X187714286Y-103848571D01*
X187857143Y-104372381D02*
X187380952Y-104372381D01*
X187380952Y-103372381D01*
X187857143Y-103372381D01*
X188047619Y-104467619D02*
X188809524Y-104467619D01*
X189000000Y-104086667D02*
X189476191Y-104086667D01*
X188904762Y-104372381D02*
X189238095Y-103372381D01*
X189571429Y-104372381D01*
X189904762Y-104372381D02*
X189904762Y-103372381D01*
X190476191Y-104372381D01*
X190476191Y-103372381D01*
X190809524Y-103372381D02*
X191380953Y-103372381D01*
X191095238Y-104372381D02*
X191095238Y-103372381D01*
X127133809Y-91368571D02*
X126800475Y-91368571D01*
X126800475Y-91892381D02*
X126800475Y-90892381D01*
X127276666Y-90892381D01*
X128086190Y-91892381D02*
X128086190Y-91368571D01*
X128038571Y-91273333D01*
X127943333Y-91225714D01*
X127752856Y-91225714D01*
X127657618Y-91273333D01*
X128086190Y-91844762D02*
X127990952Y-91892381D01*
X127752856Y-91892381D01*
X127657618Y-91844762D01*
X127609999Y-91749524D01*
X127609999Y-91654286D01*
X127657618Y-91559048D01*
X127752856Y-91511429D01*
X127990952Y-91511429D01*
X128086190Y-91463810D01*
X128562380Y-91892381D02*
X128562380Y-90892381D01*
X128562380Y-91273333D02*
X128657618Y-91225714D01*
X128848095Y-91225714D01*
X128943333Y-91273333D01*
X128990952Y-91320952D01*
X129038571Y-91416190D01*
X129038571Y-91701905D01*
X128990952Y-91797143D01*
X128943333Y-91844762D01*
X128848095Y-91892381D01*
X128657618Y-91892381D01*
X128562380Y-91844762D01*
X130229047Y-91892381D02*
X130229047Y-90892381D01*
X130467142Y-90892381D01*
X130610000Y-90940000D01*
X130705238Y-91035238D01*
X130752857Y-91130476D01*
X130800476Y-91320952D01*
X130800476Y-91463810D01*
X130752857Y-91654286D01*
X130705238Y-91749524D01*
X130610000Y-91844762D01*
X130467142Y-91892381D01*
X130229047Y-91892381D01*
X131610000Y-91844762D02*
X131514762Y-91892381D01*
X131324285Y-91892381D01*
X131229047Y-91844762D01*
X131181428Y-91749524D01*
X131181428Y-91368571D01*
X131229047Y-91273333D01*
X131324285Y-91225714D01*
X131514762Y-91225714D01*
X131610000Y-91273333D01*
X131657619Y-91368571D01*
X131657619Y-91463810D01*
X131181428Y-91559048D01*
X131943333Y-91225714D02*
X132324285Y-91225714D01*
X132086190Y-90892381D02*
X132086190Y-91749524D01*
X132133809Y-91844762D01*
X132229047Y-91892381D01*
X132324285Y-91892381D01*
X133086191Y-91892381D02*
X133086191Y-91368571D01*
X133038572Y-91273333D01*
X132943334Y-91225714D01*
X132752857Y-91225714D01*
X132657619Y-91273333D01*
X133086191Y-91844762D02*
X132990953Y-91892381D01*
X132752857Y-91892381D01*
X132657619Y-91844762D01*
X132610000Y-91749524D01*
X132610000Y-91654286D01*
X132657619Y-91559048D01*
X132752857Y-91511429D01*
X132990953Y-91511429D01*
X133086191Y-91463810D01*
X133562381Y-91892381D02*
X133562381Y-91225714D01*
X133562381Y-90892381D02*
X133514762Y-90940000D01*
X133562381Y-90987619D01*
X133610000Y-90940000D01*
X133562381Y-90892381D01*
X133562381Y-90987619D01*
X134181428Y-91892381D02*
X134086190Y-91844762D01*
X134038571Y-91749524D01*
X134038571Y-90892381D01*
X134514762Y-91844762D02*
X134610000Y-91892381D01*
X134800476Y-91892381D01*
X134895715Y-91844762D01*
X134943334Y-91749524D01*
X134943334Y-91701905D01*
X134895715Y-91606667D01*
X134800476Y-91559048D01*
X134657619Y-91559048D01*
X134562381Y-91511429D01*
X134514762Y-91416190D01*
X134514762Y-91368571D01*
X134562381Y-91273333D01*
X134657619Y-91225714D01*
X134800476Y-91225714D01*
X134895715Y-91273333D01*
X135990953Y-91225714D02*
X136371905Y-91225714D01*
X136133810Y-90892381D02*
X136133810Y-91749524D01*
X136181429Y-91844762D01*
X136276667Y-91892381D01*
X136371905Y-91892381D01*
X137133811Y-91892381D02*
X137133811Y-91368571D01*
X137086192Y-91273333D01*
X136990954Y-91225714D01*
X136800477Y-91225714D01*
X136705239Y-91273333D01*
X137133811Y-91844762D02*
X137038573Y-91892381D01*
X136800477Y-91892381D01*
X136705239Y-91844762D01*
X136657620Y-91749524D01*
X136657620Y-91654286D01*
X136705239Y-91559048D01*
X136800477Y-91511429D01*
X137038573Y-91511429D01*
X137133811Y-91463810D01*
X137610001Y-91892381D02*
X137610001Y-90892381D01*
X137610001Y-91273333D02*
X137705239Y-91225714D01*
X137895716Y-91225714D01*
X137990954Y-91273333D01*
X138038573Y-91320952D01*
X138086192Y-91416190D01*
X138086192Y-91701905D01*
X138038573Y-91797143D01*
X137990954Y-91844762D01*
X137895716Y-91892381D01*
X137705239Y-91892381D01*
X137610001Y-91844762D01*
X138657620Y-91892381D02*
X138562382Y-91844762D01*
X138514763Y-91749524D01*
X138514763Y-90892381D01*
X139419526Y-91844762D02*
X139324288Y-91892381D01*
X139133811Y-91892381D01*
X139038573Y-91844762D01*
X138990954Y-91749524D01*
X138990954Y-91368571D01*
X139038573Y-91273333D01*
X139133811Y-91225714D01*
X139324288Y-91225714D01*
X139419526Y-91273333D01*
X139467145Y-91368571D01*
X139467145Y-91463810D01*
X138990954Y-91559048D01*
D12*
X177896190Y-129726190D02*
X177658095Y-129892857D01*
X177896190Y-130011904D02*
X177396190Y-130011904D01*
X177396190Y-129821428D01*
X177420000Y-129773809D01*
X177443810Y-129750000D01*
X177491429Y-129726190D01*
X177562857Y-129726190D01*
X177610476Y-129750000D01*
X177634286Y-129773809D01*
X177658095Y-129821428D01*
X177658095Y-130011904D01*
X177634286Y-129511904D02*
X177634286Y-129345238D01*
X177896190Y-129273809D02*
X177896190Y-129511904D01*
X177396190Y-129511904D01*
X177396190Y-129273809D01*
X177872381Y-129083333D02*
X177896190Y-129011904D01*
X177896190Y-128892857D01*
X177872381Y-128845238D01*
X177848571Y-128821428D01*
X177800952Y-128797619D01*
X177753333Y-128797619D01*
X177705714Y-128821428D01*
X177681905Y-128845238D01*
X177658095Y-128892857D01*
X177634286Y-128988095D01*
X177610476Y-129035714D01*
X177586667Y-129059523D01*
X177539048Y-129083333D01*
X177491429Y-129083333D01*
X177443810Y-129059523D01*
X177420000Y-129035714D01*
X177396190Y-128988095D01*
X177396190Y-128869047D01*
X177420000Y-128797619D01*
X177634286Y-128583333D02*
X177634286Y-128416667D01*
X177896190Y-128345238D02*
X177896190Y-128583333D01*
X177396190Y-128583333D01*
X177396190Y-128345238D01*
X177396190Y-128202381D02*
X177396190Y-127916667D01*
X177896190Y-128059524D02*
X177396190Y-128059524D01*
M02*
