M48
;DRILL file {KiCad 4.0.4-stable} date 01/28/17 20:23:12
;FORMAT={-:-/ absolute / inch / decimal}
FMAT,2
INCH,TZ
T1C0.012
T2C0.016
T3C0.031
T4C0.059
%
G90
G05
M72
T1
X6.8594Y-4.8555
X6.9008Y-4.1441
X6.9823Y-4.2169
X6.9831Y-4.1441
X7.0591Y-4.2173
X7.0689Y-5.1177
X7.0945Y-4.339
X7.098Y-4.7409
X7.1039Y-4.1429
X7.139Y-4.2169
X7.2177Y-4.2571
X7.2256Y-4.339
X7.2256Y-4.4449
X7.2429Y-4.7402
X7.2429Y-4.865
X7.2571Y-4.1732
X7.2657Y-5.1177
X7.2965Y-4.2567
X7.3358Y-4.1748
X7.3752Y-4.2571
X7.3972Y-4.339
X7.4146Y-4.1732
X7.4539Y-4.2571
X7.4626Y-4.9209
X7.4626Y-5.1177
X7.4933Y-4.1732
X7.6594Y-4.9209
X7.6594Y-5.1177
T2
X7.0472Y-4.6457
X7.3047Y-4.5748
X7.3425Y-4.652
X7.3768Y-4.7248
X7.4366Y-4.4902
T3
X6.7787Y-4.1429
X6.7787Y-4.2217
X6.7787Y-4.3004
X6.7787Y-4.3791
X6.7787Y-4.4579
X6.7787Y-4.5366
X6.7787Y-4.6154
X6.7787Y-4.6941
X6.7787Y-4.7728
X6.7787Y-4.8516
X7.6449Y-4.1429
X7.6449Y-4.2217
X7.6449Y-4.3004
X7.6449Y-4.3791
X7.6449Y-4.4579
X7.6449Y-4.5366
X7.6449Y-4.6154
X7.6449Y-4.6941
X7.6449Y-4.7728
X7.6449Y-4.8516
T4
X7.2126Y-4.0827
T0
M30
