G04 #@! TF.FileFunction,Copper,L2,Bot,Signal*
%FSLAX46Y46*%
G04 Gerber Fmt 4.6, Leading zero omitted, Abs format (unit mm)*
G04 Created by KiCad (PCBNEW 4.0.4-stable) date 01/28/17 20:23:09*
%MOMM*%
%LPD*%
G01*
G04 APERTURE LIST*
%ADD10C,0.100000*%
%ADD11C,0.500000*%
%ADD12C,1.400000*%
%ADD13R,2.000000X1.000000*%
%ADD14R,1.350000X4.700000*%
%ADD15C,2.500000*%
%ADD16C,0.600000*%
%ADD17C,0.203200*%
%ADD18C,0.381000*%
%ADD19C,0.349580*%
%ADD20C,0.200000*%
%ADD21C,0.254000*%
G04 APERTURE END LIST*
D10*
D11*
X177370000Y-105260000D03*
X177350000Y-107110000D03*
X179300000Y-107120000D03*
X187890000Y-110210000D03*
X180200000Y-110210000D03*
X183530000Y-110210000D03*
X183530000Y-112900000D03*
X183970000Y-123570000D03*
X183970000Y-120400000D03*
X180290000Y-120420000D03*
X181330000Y-107110000D03*
X180440000Y-105230000D03*
X189550000Y-124990000D03*
X194550000Y-124990000D03*
X194550000Y-129990000D03*
X189550000Y-129990000D03*
X184550000Y-129990000D03*
X184330000Y-106000000D03*
X190330000Y-106000000D03*
X188330000Y-106000000D03*
X186330000Y-106040000D03*
X189330000Y-108130000D03*
X187330000Y-108130000D03*
X185330000Y-108120000D03*
X183330000Y-108130000D03*
X179550000Y-129990000D03*
X175280000Y-105260000D03*
D12*
X194180000Y-105230000D03*
X194180000Y-107230000D03*
X194180000Y-109230000D03*
X194180000Y-111230000D03*
X194180000Y-113230000D03*
X194180000Y-115230000D03*
X194180000Y-117230000D03*
X194180000Y-119230000D03*
X194180000Y-121230000D03*
X194180000Y-123230000D03*
X172180000Y-123230000D03*
X172180000Y-121230000D03*
X172180000Y-119230000D03*
X172180000Y-117230000D03*
X172180000Y-115230000D03*
X172180000Y-113230000D03*
X172180000Y-111230000D03*
X172180000Y-109230000D03*
X172180000Y-107230000D03*
X172180000Y-105230000D03*
D13*
X175300000Y-121200000D03*
X175300000Y-119200000D03*
X175300000Y-117200000D03*
X175300000Y-115200000D03*
X175300000Y-113200000D03*
X175300000Y-111200000D03*
X175300000Y-109200000D03*
X175300000Y-107200000D03*
X191300000Y-107200000D03*
X191300000Y-109200000D03*
X191300000Y-111200000D03*
X191300000Y-113200000D03*
X191300000Y-115200000D03*
X191300000Y-117200000D03*
X191300000Y-119200000D03*
X191300000Y-121200000D03*
D14*
X180480000Y-100350000D03*
X186050000Y-100350000D03*
D15*
X183200000Y-103700000D03*
D11*
X174230000Y-123330000D03*
D16*
X179000000Y-118000000D03*
X188890403Y-114050403D03*
X185540000Y-116200000D03*
X186500000Y-118160000D03*
X187370000Y-120010000D03*
D17*
X172180000Y-113230000D02*
X172770000Y-113230000D01*
X172770000Y-113230000D02*
X174800000Y-111200000D01*
X174800000Y-111200000D02*
X175300000Y-111200000D01*
D18*
X186030000Y-105230000D02*
X186030000Y-100370000D01*
X186030000Y-100370000D02*
X186050000Y-100350000D01*
X180480000Y-100350000D02*
X180470000Y-100360000D01*
X180470000Y-100360000D02*
X180470000Y-105220000D01*
X180470000Y-105220000D02*
X180310000Y-105380000D01*
X191300000Y-115200000D02*
X181800000Y-115200000D01*
X181800000Y-115200000D02*
X179000000Y-118000000D01*
D19*
X184080000Y-107200000D02*
X183200000Y-106320000D01*
D18*
X183200000Y-106290000D02*
X183200000Y-103700000D01*
D19*
X184080000Y-107200000D02*
X191300000Y-107200000D01*
D17*
X172180000Y-115230000D02*
X175270000Y-115230000D01*
X175270000Y-115230000D02*
X175300000Y-115200000D01*
X172180000Y-117230000D02*
X173110000Y-116300000D01*
X173110000Y-116300000D02*
X176242882Y-116300000D01*
X176242882Y-116300000D02*
X177200000Y-115342882D01*
X177200000Y-115342882D02*
X177200000Y-114600000D01*
X177200000Y-114600000D02*
X175800000Y-113200000D01*
X175800000Y-113200000D02*
X175300000Y-113200000D01*
X188890403Y-114050403D02*
X182650403Y-114050403D01*
X182650403Y-114050403D02*
X177800000Y-109200000D01*
X177800000Y-109200000D02*
X175300000Y-109200000D01*
D20*
X194210000Y-115090000D02*
X194220000Y-115100000D01*
D17*
X191300000Y-111200000D02*
X194150000Y-111200000D01*
X194150000Y-111200000D02*
X194180000Y-111230000D01*
X191300000Y-113200000D02*
X191800000Y-113200000D01*
X191800000Y-113200000D02*
X192800000Y-114200000D01*
X192800000Y-114200000D02*
X192800000Y-121850000D01*
X192800000Y-121850000D02*
X194180000Y-123230000D01*
X185540000Y-116200000D02*
X186540000Y-117200000D01*
X186540000Y-117200000D02*
X191300000Y-117200000D01*
X187540000Y-119200000D02*
X186799999Y-118459999D01*
X191300000Y-119200000D02*
X187540000Y-119200000D01*
X186799999Y-118459999D02*
X186500000Y-118160000D01*
X187669999Y-120309999D02*
X187370000Y-120010000D01*
X188560000Y-121200000D02*
X187669999Y-120309999D01*
X191300000Y-121200000D02*
X188560000Y-121200000D01*
D20*
X194220000Y-109100000D02*
X193940000Y-109100000D01*
D17*
X172180000Y-111230000D02*
X173011601Y-110398399D01*
X173011601Y-110398399D02*
X176541281Y-110398399D01*
X176541281Y-110398399D02*
X178000000Y-111857118D01*
X178000000Y-117000000D02*
X175800000Y-119200000D01*
X178000000Y-111857118D02*
X178000000Y-117000000D01*
X175800000Y-119200000D02*
X175300000Y-119200000D01*
X173600000Y-119810000D02*
X173600000Y-118400000D01*
X173600000Y-118400000D02*
X174800000Y-117200000D01*
X174800000Y-117200000D02*
X175300000Y-117200000D01*
X172180000Y-121230000D02*
X173600000Y-119810000D01*
D20*
X194220000Y-113100000D02*
X194130000Y-113100000D01*
X194220000Y-121100000D02*
X193660000Y-121100000D01*
D21*
G36*
X184604838Y-116385167D02*
X184746883Y-116728943D01*
X185009673Y-116992192D01*
X185353201Y-117134838D01*
X185433198Y-117134908D01*
X185817982Y-117519692D01*
X185707808Y-117629673D01*
X185565162Y-117973201D01*
X185564838Y-118345167D01*
X185706883Y-118688943D01*
X185969673Y-118952192D01*
X186313201Y-119094838D01*
X186393198Y-119094908D01*
X186677973Y-119379683D01*
X186577808Y-119479673D01*
X186435162Y-119823201D01*
X186434838Y-120195167D01*
X186576883Y-120538943D01*
X186839673Y-120802192D01*
X187183201Y-120944838D01*
X187263198Y-120944908D01*
X188039145Y-121720855D01*
X188278115Y-121880530D01*
X188560000Y-121936600D01*
X189697664Y-121936600D01*
X189835910Y-122151441D01*
X190048110Y-122296431D01*
X190300000Y-122347440D01*
X192263500Y-122347440D01*
X192279145Y-122370855D01*
X192852962Y-122944672D01*
X192845232Y-122963287D01*
X192844769Y-123494383D01*
X193047582Y-123985229D01*
X193422796Y-124361098D01*
X193913287Y-124564768D01*
X194444383Y-124565231D01*
X194685000Y-124465810D01*
X194685000Y-130235000D01*
X171675000Y-130235000D01*
X171675000Y-124467526D01*
X171987122Y-124577419D01*
X172517440Y-124548664D01*
X172873831Y-124401042D01*
X172935669Y-124165275D01*
X172180000Y-123409605D01*
X172165858Y-123423748D01*
X171986253Y-123244143D01*
X172000395Y-123230000D01*
X172359605Y-123230000D01*
X173115275Y-123985669D01*
X173351042Y-123923831D01*
X173527419Y-123422878D01*
X173498664Y-122892560D01*
X173351042Y-122536169D01*
X173115275Y-122474331D01*
X172359605Y-123230000D01*
X172000395Y-123230000D01*
X171986253Y-123215858D01*
X172165858Y-123036252D01*
X172180000Y-123050395D01*
X172820621Y-122409773D01*
X172935229Y-122362418D01*
X173311098Y-121987204D01*
X173514768Y-121496713D01*
X173514777Y-121485750D01*
X173665000Y-121485750D01*
X173665000Y-121826310D01*
X173761673Y-122059699D01*
X173940302Y-122238327D01*
X174173691Y-122335000D01*
X175014250Y-122335000D01*
X175173000Y-122176250D01*
X175173000Y-121327000D01*
X175427000Y-121327000D01*
X175427000Y-122176250D01*
X175585750Y-122335000D01*
X176426309Y-122335000D01*
X176659698Y-122238327D01*
X176838327Y-122059699D01*
X176935000Y-121826310D01*
X176935000Y-121485750D01*
X176776250Y-121327000D01*
X175427000Y-121327000D01*
X175173000Y-121327000D01*
X173823750Y-121327000D01*
X173665000Y-121485750D01*
X173514777Y-121485750D01*
X173515231Y-120965617D01*
X173506712Y-120944998D01*
X173665000Y-120786710D01*
X173665000Y-120914250D01*
X173823750Y-121073000D01*
X175173000Y-121073000D01*
X175173000Y-121053000D01*
X175427000Y-121053000D01*
X175427000Y-121073000D01*
X176776250Y-121073000D01*
X176935000Y-120914250D01*
X176935000Y-120573690D01*
X176838327Y-120340301D01*
X176697089Y-120199064D01*
X176751441Y-120164090D01*
X176896431Y-119951890D01*
X176947440Y-119700000D01*
X176947440Y-119094270D01*
X178065020Y-117976690D01*
X178064838Y-118185167D01*
X178206883Y-118528943D01*
X178469673Y-118792192D01*
X178813201Y-118934838D01*
X179185167Y-118935162D01*
X179528943Y-118793117D01*
X179792192Y-118530327D01*
X179902318Y-118265116D01*
X182141934Y-116025500D01*
X184605151Y-116025500D01*
X184604838Y-116385167D01*
X184604838Y-116385167D01*
G37*
X184604838Y-116385167D02*
X184746883Y-116728943D01*
X185009673Y-116992192D01*
X185353201Y-117134838D01*
X185433198Y-117134908D01*
X185817982Y-117519692D01*
X185707808Y-117629673D01*
X185565162Y-117973201D01*
X185564838Y-118345167D01*
X185706883Y-118688943D01*
X185969673Y-118952192D01*
X186313201Y-119094838D01*
X186393198Y-119094908D01*
X186677973Y-119379683D01*
X186577808Y-119479673D01*
X186435162Y-119823201D01*
X186434838Y-120195167D01*
X186576883Y-120538943D01*
X186839673Y-120802192D01*
X187183201Y-120944838D01*
X187263198Y-120944908D01*
X188039145Y-121720855D01*
X188278115Y-121880530D01*
X188560000Y-121936600D01*
X189697664Y-121936600D01*
X189835910Y-122151441D01*
X190048110Y-122296431D01*
X190300000Y-122347440D01*
X192263500Y-122347440D01*
X192279145Y-122370855D01*
X192852962Y-122944672D01*
X192845232Y-122963287D01*
X192844769Y-123494383D01*
X193047582Y-123985229D01*
X193422796Y-124361098D01*
X193913287Y-124564768D01*
X194444383Y-124565231D01*
X194685000Y-124465810D01*
X194685000Y-130235000D01*
X171675000Y-130235000D01*
X171675000Y-124467526D01*
X171987122Y-124577419D01*
X172517440Y-124548664D01*
X172873831Y-124401042D01*
X172935669Y-124165275D01*
X172180000Y-123409605D01*
X172165858Y-123423748D01*
X171986253Y-123244143D01*
X172000395Y-123230000D01*
X172359605Y-123230000D01*
X173115275Y-123985669D01*
X173351042Y-123923831D01*
X173527419Y-123422878D01*
X173498664Y-122892560D01*
X173351042Y-122536169D01*
X173115275Y-122474331D01*
X172359605Y-123230000D01*
X172000395Y-123230000D01*
X171986253Y-123215858D01*
X172165858Y-123036252D01*
X172180000Y-123050395D01*
X172820621Y-122409773D01*
X172935229Y-122362418D01*
X173311098Y-121987204D01*
X173514768Y-121496713D01*
X173514777Y-121485750D01*
X173665000Y-121485750D01*
X173665000Y-121826310D01*
X173761673Y-122059699D01*
X173940302Y-122238327D01*
X174173691Y-122335000D01*
X175014250Y-122335000D01*
X175173000Y-122176250D01*
X175173000Y-121327000D01*
X175427000Y-121327000D01*
X175427000Y-122176250D01*
X175585750Y-122335000D01*
X176426309Y-122335000D01*
X176659698Y-122238327D01*
X176838327Y-122059699D01*
X176935000Y-121826310D01*
X176935000Y-121485750D01*
X176776250Y-121327000D01*
X175427000Y-121327000D01*
X175173000Y-121327000D01*
X173823750Y-121327000D01*
X173665000Y-121485750D01*
X173514777Y-121485750D01*
X173515231Y-120965617D01*
X173506712Y-120944998D01*
X173665000Y-120786710D01*
X173665000Y-120914250D01*
X173823750Y-121073000D01*
X175173000Y-121073000D01*
X175173000Y-121053000D01*
X175427000Y-121053000D01*
X175427000Y-121073000D01*
X176776250Y-121073000D01*
X176935000Y-120914250D01*
X176935000Y-120573690D01*
X176838327Y-120340301D01*
X176697089Y-120199064D01*
X176751441Y-120164090D01*
X176896431Y-119951890D01*
X176947440Y-119700000D01*
X176947440Y-119094270D01*
X178065020Y-117976690D01*
X178064838Y-118185167D01*
X178206883Y-118528943D01*
X178469673Y-118792192D01*
X178813201Y-118934838D01*
X179185167Y-118935162D01*
X179528943Y-118793117D01*
X179792192Y-118530327D01*
X179902318Y-118265116D01*
X182141934Y-116025500D01*
X184605151Y-116025500D01*
X184604838Y-116385167D01*
G36*
X181601043Y-104766372D02*
X182130839Y-105297093D01*
X182374500Y-105398270D01*
X182374500Y-106290000D01*
X182437337Y-106605905D01*
X182451211Y-106626668D01*
X182451852Y-106629893D01*
X182627392Y-106892608D01*
X183507392Y-107772608D01*
X183770107Y-107948148D01*
X184080000Y-108009790D01*
X189744760Y-108009790D01*
X189835910Y-108151441D01*
X189904006Y-108197969D01*
X189761673Y-108340301D01*
X189665000Y-108573690D01*
X189665000Y-108914250D01*
X189823750Y-109073000D01*
X191173000Y-109073000D01*
X191173000Y-109053000D01*
X191427000Y-109053000D01*
X191427000Y-109073000D01*
X191447000Y-109073000D01*
X191447000Y-109327000D01*
X191427000Y-109327000D01*
X191427000Y-109347000D01*
X191173000Y-109347000D01*
X191173000Y-109327000D01*
X189823750Y-109327000D01*
X189665000Y-109485750D01*
X189665000Y-109826310D01*
X189761673Y-110059699D01*
X189902911Y-110200936D01*
X189848559Y-110235910D01*
X189703569Y-110448110D01*
X189652560Y-110700000D01*
X189652560Y-111700000D01*
X189696838Y-111935317D01*
X189835910Y-112151441D01*
X189905711Y-112199134D01*
X189848559Y-112235910D01*
X189703569Y-112448110D01*
X189652560Y-112700000D01*
X189652560Y-113490446D01*
X189420730Y-113258211D01*
X189077202Y-113115565D01*
X188705236Y-113115241D01*
X188361460Y-113257286D01*
X188304844Y-113313803D01*
X182955513Y-113313803D01*
X178320855Y-108679145D01*
X178081885Y-108519470D01*
X177800000Y-108463400D01*
X176902336Y-108463400D01*
X176764090Y-108248559D01*
X176695994Y-108202031D01*
X176838327Y-108059699D01*
X176935000Y-107826310D01*
X176935000Y-107485750D01*
X176776250Y-107327000D01*
X175427000Y-107327000D01*
X175427000Y-107347000D01*
X175173000Y-107347000D01*
X175173000Y-107327000D01*
X173823750Y-107327000D01*
X173665000Y-107485750D01*
X173665000Y-107826310D01*
X173761673Y-108059699D01*
X173902911Y-108200936D01*
X173848559Y-108235910D01*
X173703569Y-108448110D01*
X173652560Y-108700000D01*
X173652560Y-109661799D01*
X173446218Y-109661799D01*
X173514768Y-109496713D01*
X173515231Y-108965617D01*
X173312418Y-108474771D01*
X173067976Y-108229902D01*
X173311098Y-107987204D01*
X173514768Y-107496713D01*
X173515231Y-106965617D01*
X173353291Y-106573690D01*
X173665000Y-106573690D01*
X173665000Y-106914250D01*
X173823750Y-107073000D01*
X175173000Y-107073000D01*
X175173000Y-106223750D01*
X175427000Y-106223750D01*
X175427000Y-107073000D01*
X176776250Y-107073000D01*
X176935000Y-106914250D01*
X176935000Y-106573690D01*
X176838327Y-106340301D01*
X176659698Y-106161673D01*
X176426309Y-106065000D01*
X175585750Y-106065000D01*
X175427000Y-106223750D01*
X175173000Y-106223750D01*
X175014250Y-106065000D01*
X174173691Y-106065000D01*
X173940302Y-106161673D01*
X173761673Y-106340301D01*
X173665000Y-106573690D01*
X173353291Y-106573690D01*
X173312418Y-106474771D01*
X173067976Y-106229902D01*
X173311098Y-105987204D01*
X173514768Y-105496713D01*
X173515231Y-104965617D01*
X173382780Y-104645060D01*
X181548137Y-104638329D01*
X181601043Y-104766372D01*
X181601043Y-104766372D01*
G37*
X181601043Y-104766372D02*
X182130839Y-105297093D01*
X182374500Y-105398270D01*
X182374500Y-106290000D01*
X182437337Y-106605905D01*
X182451211Y-106626668D01*
X182451852Y-106629893D01*
X182627392Y-106892608D01*
X183507392Y-107772608D01*
X183770107Y-107948148D01*
X184080000Y-108009790D01*
X189744760Y-108009790D01*
X189835910Y-108151441D01*
X189904006Y-108197969D01*
X189761673Y-108340301D01*
X189665000Y-108573690D01*
X189665000Y-108914250D01*
X189823750Y-109073000D01*
X191173000Y-109073000D01*
X191173000Y-109053000D01*
X191427000Y-109053000D01*
X191427000Y-109073000D01*
X191447000Y-109073000D01*
X191447000Y-109327000D01*
X191427000Y-109327000D01*
X191427000Y-109347000D01*
X191173000Y-109347000D01*
X191173000Y-109327000D01*
X189823750Y-109327000D01*
X189665000Y-109485750D01*
X189665000Y-109826310D01*
X189761673Y-110059699D01*
X189902911Y-110200936D01*
X189848559Y-110235910D01*
X189703569Y-110448110D01*
X189652560Y-110700000D01*
X189652560Y-111700000D01*
X189696838Y-111935317D01*
X189835910Y-112151441D01*
X189905711Y-112199134D01*
X189848559Y-112235910D01*
X189703569Y-112448110D01*
X189652560Y-112700000D01*
X189652560Y-113490446D01*
X189420730Y-113258211D01*
X189077202Y-113115565D01*
X188705236Y-113115241D01*
X188361460Y-113257286D01*
X188304844Y-113313803D01*
X182955513Y-113313803D01*
X178320855Y-108679145D01*
X178081885Y-108519470D01*
X177800000Y-108463400D01*
X176902336Y-108463400D01*
X176764090Y-108248559D01*
X176695994Y-108202031D01*
X176838327Y-108059699D01*
X176935000Y-107826310D01*
X176935000Y-107485750D01*
X176776250Y-107327000D01*
X175427000Y-107327000D01*
X175427000Y-107347000D01*
X175173000Y-107347000D01*
X175173000Y-107327000D01*
X173823750Y-107327000D01*
X173665000Y-107485750D01*
X173665000Y-107826310D01*
X173761673Y-108059699D01*
X173902911Y-108200936D01*
X173848559Y-108235910D01*
X173703569Y-108448110D01*
X173652560Y-108700000D01*
X173652560Y-109661799D01*
X173446218Y-109661799D01*
X173514768Y-109496713D01*
X173515231Y-108965617D01*
X173312418Y-108474771D01*
X173067976Y-108229902D01*
X173311098Y-107987204D01*
X173514768Y-107496713D01*
X173515231Y-106965617D01*
X173353291Y-106573690D01*
X173665000Y-106573690D01*
X173665000Y-106914250D01*
X173823750Y-107073000D01*
X175173000Y-107073000D01*
X175173000Y-106223750D01*
X175427000Y-106223750D01*
X175427000Y-107073000D01*
X176776250Y-107073000D01*
X176935000Y-106914250D01*
X176935000Y-106573690D01*
X176838327Y-106340301D01*
X176659698Y-106161673D01*
X176426309Y-106065000D01*
X175585750Y-106065000D01*
X175427000Y-106223750D01*
X175173000Y-106223750D01*
X175014250Y-106065000D01*
X174173691Y-106065000D01*
X173940302Y-106161673D01*
X173761673Y-106340301D01*
X173665000Y-106573690D01*
X173353291Y-106573690D01*
X173312418Y-106474771D01*
X173067976Y-106229902D01*
X173311098Y-105987204D01*
X173514768Y-105496713D01*
X173515231Y-104965617D01*
X173382780Y-104645060D01*
X181548137Y-104638329D01*
X181601043Y-104766372D01*
G36*
X192845232Y-104963287D02*
X192844769Y-105494383D01*
X193047582Y-105985229D01*
X193292024Y-106230098D01*
X193048902Y-106472796D01*
X192947440Y-106717143D01*
X192947440Y-106700000D01*
X192903162Y-106464683D01*
X192764090Y-106248559D01*
X192551890Y-106103569D01*
X192300000Y-106052560D01*
X190300000Y-106052560D01*
X190064683Y-106096838D01*
X189848559Y-106235910D01*
X189743130Y-106390210D01*
X184415426Y-106390210D01*
X184025500Y-106000284D01*
X184025500Y-105398483D01*
X184266372Y-105298957D01*
X184797093Y-104769161D01*
X184852550Y-104635605D01*
X192984081Y-104628901D01*
X192845232Y-104963287D01*
X192845232Y-104963287D01*
G37*
X192845232Y-104963287D02*
X192844769Y-105494383D01*
X193047582Y-105985229D01*
X193292024Y-106230098D01*
X193048902Y-106472796D01*
X192947440Y-106717143D01*
X192947440Y-106700000D01*
X192903162Y-106464683D01*
X192764090Y-106248559D01*
X192551890Y-106103569D01*
X192300000Y-106052560D01*
X190300000Y-106052560D01*
X190064683Y-106096838D01*
X189848559Y-106235910D01*
X189743130Y-106390210D01*
X184415426Y-106390210D01*
X184025500Y-106000284D01*
X184025500Y-105398483D01*
X184266372Y-105298957D01*
X184797093Y-104769161D01*
X184852550Y-104635605D01*
X192984081Y-104628901D01*
X192845232Y-104963287D01*
M02*
